<svg xmlns="http://www.w3.org/2000/svg"><symbol id="icon-chevron" viewBox="0 0 263 263"><path d="M200.8 131.5l-30.4 30.4-77.8 77.8-30.4-30.4 77.8-77.8 30.4-30.4 30.4 30.4z"/><path d="M200.8 131.5l-30.4 30.4L62.2 53.7l30.4-30.4 108.2 108.2z"/></symbol><symbol id="icon-close" viewBox="0 0 263 263"><path d="M23.282 209.282L209.25 23.312l30.377 30.378L53.66 239.66z"/><path d="M53.718 23.282l185.97 185.969-30.378 30.377L23.34 53.66z"/></symbol><symbol id="icon-error" viewBox="0 0 263 263"><path d="M245.3 220.4L142.6 42.6a12.8 12.8 0 0 0-22.3 0L17.7 220.4a12.8 12.8 0 0 0 11.1 19.3h205.4a12.8 12.8 0 0 0 11.1-19.3zm-113.8 4.4a17.2 17.2 0 1 1 17.2-17.2 17.2 17.2 0 0 1-17.2 17.2zm17.2-57.8a9.4 9.4 0 0 1-9.4 9.4h-15.6a9.4 9.4 0 0 1-9.4-9.4V90.1a9.4 9.4 0 0 1 9.4-9.4h15.7a9.4 9.4 0 0 1 9.4 9.4z"/></symbol><symbol id="icon-hamburger" viewBox="0 0 263 263"><path d="M0 28.9h263v42.96H0zM0 110h263v42.96H0zm0 81.1h263v42.96H0z"/></symbol></svg>