<svg xmlns="http://www.w3.org/2000/svg"><symbol id="planning-01-establish" viewBox="0 0 64 64"><path d="M61 30V1a1.001 1.001 0 0 0-1.371-.929l-10 4a1.002 1.002 0 0 0-.001 1.858L59 9.677V30h-1a.997.997 0 0 0-.707.293L39.5 48.086l-3.793-3.793a.999.999 0 0 0-1.414 0L22.5 56.086l-7.293-7.293a.999.999 0 0 0-1.414 0l-13.5 13.5A.996.996 0 0 0 0 63v1h2v-.586l12.5-12.5 7.293 7.293a.999.999 0 0 0 1.414 0L35 46.414l3.793 3.793a.999.999 0 0 0 1.414 0L58.414 32H64v-2h-3zM52.692 5L59 2.477v5.047L52.692 5z"/><path d="M1.726 43.687c2.424-2.562 7.46-.953 10.469.007 1.247.398 2.446.597 3.579.597A8.45 8.45 0 0 0 19 43.655V50a1 1 0 0 0 1 1h5a1 1 0 0 0 1-1v-9.717c.221-.33.63-.588 1.253-.893.201-.099.406-.19.611-.281.573-.256 1.166-.521 1.72-.932.653-.484 1.138-1.317 1.331-2.177H33v6a1 1 0 0 0 1 1h5a1 1 0 0 0 1-1v-8c0-2.757-2.243-5-5-5h-6v-3h5c2.757 0 5-2.243 5-5v-9a1 1 0 0 0-1-1h-4a1 1 0 0 0-1 1v8h-4.89a5.958 5.958 0 0 0 .812-3c0-3.309-2.691-6-6-6s-6 2.691-6 6c0 1.002.25 1.945.686 2.777-3.378.996-6.423 3.234-8.845 6.551-1.076 1.473-1.873 3.151-2.644 4.773-.206.434-.411.865-.619 1.288-.469.952-.911 1.992-1.339 2.998-1.072 2.518-2.179 5.121-3.886 6.925l-.001.001a1 1 0 1 0 1.452 1.374zM19 30.742l-1.165-1.164L19 28.414v2.328zm9.394 5.827c-.379.281-.849.49-1.345.713-.227.101-.453.202-.675.311-.123.06-.248.13-.374.196V36h2.81c-.112.236-.255.45-.416.569zM34 22a1 1 0 0 0 1-1v-8h2v8c0 1.654-1.346 3-3 3h-6a1 1 0 0 0-1 1v5a1 1 0 0 0 1 1h7c1.654 0 3 1.346 3 3v7h-3v-6a1 1 0 0 0-1-1h-9a1 1 0 0 0-1 1v14h-3V26a1 1 0 0 0-1.707-.707l-3.579 3.578a.997.997 0 0 0 0 1.414l2.793 2.793-1.586 1.586-2.964-2.964a3.005 3.005 0 0 1 0-4.243l5.538-5.538A5.968 5.968 0 0 0 22.921 23c.027 0 .052-.004.079-.004V29h2v-6.379A6.022 6.022 0 0 0 26.231 22H34zm-11.079-9c2.206 0 4 1.794 4 4s-1.794 4-4 4-4-1.794-4-4 1.795-4 4-4zM6.001 36.17c.437-1.026.849-1.995 1.293-2.898.212-.431.421-.87.631-1.312.731-1.539 1.487-3.131 2.452-4.452 1.224-1.676 3.107-3.696 5.698-4.996l-3.533 3.533a5.006 5.006 0 0 0 0 7.071l3.671 3.671a.999.999 0 0 0 1.414 0L19 35.414v6.018c-2.102 1.233-4.503.898-6.197.358-2.353-.752-5.786-1.846-8.772-1.375.742-1.36 1.362-2.815 1.97-4.245z"/></symbol><symbol id="planning-04-everyone" viewBox="0 0 56 56"><path d="M51 30h-.54A5.97 5.97 0 0 0 52 26c0-3.309-2.691-6-6-6s-6 2.691-6 6a5.97 5.97 0 0 0 1.54 4H41c-1.13 0-2.162.391-3 1.026V28c0-2.757-2.243-5-5-5h-.54A5.97 5.97 0 0 0 34 19c0-.023-.003-.044-.003-.067a.983.983 0 0 0 .364-.226c3.509-3.509 3.509-9.219 0-12.728a8.949 8.949 0 0 0-5.36-2.571V3c0-1.654-1.346-3-3-3H0v2h26a1 1 0 0 1 1 1v.408a8.952 8.952 0 0 0-5.367 2.572c-3.509 3.509-3.509 9.219 0 12.728a.982.982 0 0 0 .37.227c0 .022-.003.043-.003.065a5.97 5.97 0 0 0 1.54 4H23c-2.757 0-5 2.243-5 5v3.026A4.948 4.948 0 0 0 15 30h-.54A5.97 5.97 0 0 0 16 26c0-3.309-2.691-6-6-6s-6 2.691-6 6a5.97 5.97 0 0 0 1.54 4H5c-2.757 0-5 2.243-5 5v7a1 1 0 0 0 1 1h3v12a1 1 0 0 0 1 1h10a1 1 0 0 0 1-1V43h3a1 1 0 0 0 1-1v-6h2v12a1 1 0 0 0 1 1h10a1 1 0 0 0 1-1V36h2v6a1 1 0 0 0 1 1h3v12a1 1 0 0 0 1 1h10a1 1 0 0 0 1-1V43h3a1 1 0 0 0 1-1v-7c0-2.757-2.243-5-5-5zm-9-4c0-2.206 1.794-4 4-4s4 1.794 4 4-1.794 4-4 4-4-1.794-4-4zm-12.766-1L28 27.057 26.766 25h2.468zM28 13a5.96 5.96 0 0 0-2.679.639c-.546-1.122-.364-2.499.554-3.417a3.002 3.002 0 0 1 4.242 0c.917.917 1.1 2.293.555 3.414A5.955 5.955 0 0 0 28 13zm-5.609 3.535c-2.052-2.739-1.833-6.652.656-9.142a6.954 6.954 0 0 1 4.95-2.047c1.872 0 3.63.728 4.949 2.047 2.489 2.489 2.708 6.402.656 9.143l-.267-.268a6.015 6.015 0 0 0-1.024-1.431 4.991 4.991 0 0 0-.78-6.029 5.005 5.005 0 0 0-7.07 0 4.991 4.991 0 0 0-.777 6.035 6.061 6.061 0 0 0-1.013 1.412l-.28.28zM24 19c0-.62.154-1.201.407-1.725.003-.006.009-.01.012-.017.138-.283.311-.548.511-.79l.016-.019c.201-.241.429-.46.68-.647l.008-.009A3.956 3.956 0 0 1 28 15c.888 0 1.702.301 2.366.792l.006.007c.252.187.48.406.681.648l.025.03c.199.244.372.51.51.795.004.008.011.013.014.02.248.52.398 1.095.398 1.708 0 2.206-1.794 4-4 4s-4-1.794-4-4zM6 26c0-2.206 1.794-4 4-4s4 1.794 4 4-1.794 4-4 4-4-1.794-4-4zm12 15h-2v-6h-2v19h-3V43H9v11H6V35H4v6H2v-6c0-1.654 1.346-3 3-3h10c1.654 0 3 1.346 3 3v6zm14-13v19h-3V36h-2v11h-3V28h-2v6h-2v-6c0-1.654 1.346-3 3-3h1.434l2.709 4.515a1 1 0 0 0 1.714 0L31.566 25H33c1.654 0 3 1.346 3 3v6h-2v-6h-2zm22 13h-2v-6h-2v19h-3V43h-2v11h-3V35h-2v6h-2v-6c0-1.654 1.346-3 3-3h10c1.654 0 3 1.346 3 3v6z"/><path d="M17 4h2v2h-2zm-4 0h2v2h-2zM9 4h2v2H9z"/></symbol><symbol id="planning-05-meeting" viewBox="0 0 64 64"><path d="M39.5 15h-16c-2.757 0-5 2.243-5 5v29c0 2.757 2.243 5 5 5h16c2.757 0 5-2.243 5-5V20c0-2.757-2.243-5-5-5zm3 34c0 1.654-1.346 3-3 3h-16c-1.654 0-3-1.346-3-3V20c0-1.654 1.346-3 3-3h16c1.654 0 3 1.346 3 3v29z"/><path d="M27.5 7H12.959A5.98 5.98 0 0 0 8.5 5c-3.309 0-6 2.691-6 6a5.98 5.98 0 0 0 2 4.459V31c0 1.654 1.346 3 3 3s3-1.346 3-3v-8.586L19.914 13H27.5c1.654 0 3-1.346 3-3s-1.346-3-3-3zm-23 4c0-2.206 1.794-4 4-4s4 1.794 4 4-1.794 4-4 4-4-1.794-4-4zm23 0h-8a.997.997 0 0 0-.707.293l-10 10A.997.997 0 0 0 8.5 22v9c0 .551-.449 1-1 1s-1-.449-1-1V16.65c.627.222 1.298.35 2 .35 3.309 0 6-2.691 6-6 0-.702-.128-1.373-.35-2H27.5c.551 0 1 .449 1 1s-.449 1-1 1zm28-6c-1.771 0-3.36.776-4.46 2H35.5c-1.654 0-3 1.346-3 3s1.346 3 3 3h8.586l9.414 9.414V30c0 1.654 1.346 3 3 3s3-1.346 3-3V15.459a5.98 5.98 0 0 0 2-4.459c0-3.309-2.691-6-6-6zm2 25c0 .551-.449 1-1 1s-1-.449-1-1v-8c0-.265-.106-.52-.293-.707l-10-10A1 1 0 0 0 44.5 11h-9c-.551 0-1-.449-1-1s.449-1 1-1h14.35a5.976 5.976 0 0 0-.35 2c0 3.309 2.691 6 6 6 .702 0 1.373-.128 2-.35V30zm-2-15c-2.206 0-4-1.794-4-4s1.794-4 4-4 4 1.794 4 4-1.794 4-4 4zm4 38.54V38c0-1.654-1.346-3-3-3s-3 1.346-3 3v8.586L44.086 56H36.5c-1.654 0-3 1.346-3 3s1.346 3 3 3h14.54a5.98 5.98 0 0 0 4.46 2c3.309 0 6-2.691 6-6 0-1.771-.776-3.36-2-4.46zM49.5 58c0 .702.128 1.373.35 2H36.5c-.551 0-1-.449-1-1s.449-1 1-1h8c.265 0 .519-.106.707-.293l10-10c.187-.188.293-.442.293-.707v-9c0-.551.449-1 1-1s1 .449 1 1v14.35a5.976 5.976 0 0 0-2-.35c-3.309 0-6 2.691-6 6zm6 4c-2.206 0-4-1.794-4-4s1.794-4 4-4 4 1.794 4 4-1.794 4-4 4zm-27-6h-8.586L10.5 46.586V39c0-1.654-1.346-3-3-3s-3 1.346-3 3v14.54a5.983 5.983 0 0 0-2 4.46c0 3.309 2.691 6 6 6a5.98 5.98 0 0 0 4.459-2H28.5c1.654 0 3-1.346 3-3s-1.346-3-3-3zm-20 6c-2.206 0-4-1.794-4-4s1.794-4 4-4 4 1.794 4 4-1.794 4-4 4zm20-2H14.15c.222-.627.35-1.298.35-2 0-3.309-2.691-6-6-6-.702 0-1.373.128-2 .35V39c0-.551.449-1 1-1s1 .449 1 1v8a1 1 0 0 0 .293.707l10 10c.187.187.442.293.707.293h9c.551 0 1 .449 1 1s-.449 1-1 1zm23-60h-40a1 1 0 0 0-1 1v3h2V2h38v2h2V1a1 1 0 0 0-1-1z"/><path d="M31.5 19h-8a1 1 0 0 0-1 1v6a1 1 0 0 0 1 1h8a1 1 0 0 0 1-1v-6a1 1 0 0 0-1-1zm-1 6h-6v-4h6v4zm9 17h-8a1 1 0 0 0-1 1v6a1 1 0 0 0 1 1h8a1 1 0 0 0 1-1v-6a1 1 0 0 0-1-1zm-1 6h-6v-4h6v4zm-4.293-13.707l-4-4a.999.999 0 0 0-1.414 0l-6 6a.999.999 0 0 0 0 1.414l4 4a.997.997 0 0 0 1.414 0l6-6a.999.999 0 0 0 0-1.414zM27.5 39.586L24.914 37l4.586-4.586L32.086 35 27.5 39.586zm7.294-18.878l1.414-1.414 4.497 4.497-1.414 1.414zm.408 11.002l-1.414-1.414 3.5-3.5 1.414 1.414zM22.5 45h2v2h-2zm14-8h2v2h-2z"/></symbol><symbol id="problems-02-time" viewBox="0 0 63.99 63.99"><path d="M31.996 13.582c-11.579 0-21 9.421-21 21s9.421 21 21 21 21-9.421 21-21-9.421-21-21-21zm1 39.949v-3.036h-2v3.036c-9.677-.507-17.442-8.036-17.949-18.036h2.949v-2h-2.949c.507-10 8.272-17.355 17.949-17.862v2.862h2v-2.862c9.677.507 17.442 7.862 17.949 17.862h-2.949v2h2.949c-.507 10-8.272 17.529-17.949 18.036z"/><path d="M60.774 3.804c-4.289-4.289-11.268-4.289-15.557 0a.999.999 0 0 0 0 1.414l6.365 6.364-3.706 3.706a24.878 24.878 0 0 0-14.88-5.68V6.495h3c.553 0 1-.36 1-.913v-4c0-.553-.447-1.087-1-1.087h-8c-.553 0-1 .534-1 1.087v4c0 .553.447.913 1 .913h3v3.112a24.884 24.884 0 0 0-14.88 5.68l-3.706-3.705 6.364-6.364a.999.999 0 0 0 0-1.414c-4.289-4.289-11.268-4.289-15.557 0s-4.289 11.268 0 15.557a.997.997 0 0 0 1.414 0l6.364-6.364 3.63 3.63c-4.7 4.548-7.63 10.914-7.63 17.955 0 7.798 3.59 14.771 9.203 19.36l-3.082 3.019a3.832 3.832 0 0 0 0 5.414 3.82 3.82 0 0 0 2.709 1.12c.979 0 1.957-.371 2.699-1.114l4.532-4.457a24.885 24.885 0 0 0 8.94 1.658c3.42 0 6.68-.692 9.652-1.94l4.813 4.733a3.817 3.817 0 0 0 2.707 1.119c.98 0 1.961-.373 2.707-1.119a3.834 3.834 0 0 0-.008-5.422l-3.539-3.467c5.303-4.588 8.668-11.358 8.668-18.904 0-7.041-2.931-13.407-7.63-17.955l3.63-3.63 6.364 6.364a.997.997 0 0 0 1.414 0c4.289-4.29 4.289-11.268 0-15.557zM3.964 17.2c-2.825-3.53-2.603-8.712.668-11.982a8.972 8.972 0 0 1 6.364-2.632c1.991 0 3.981.654 5.618 1.964L3.964 17.2zM28.996 4.495v-2h6v2h-6zM17.117 60.961a1.827 1.827 0 1 1-2.593-2.578l3.294-3.226a25.1 25.1 0 0 0 3.259 1.91l-3.96 3.894zm33.344-2.586a1.83 1.83 0 0 1 0 2.586 1.832 1.832 0 0 1-2.592-.006l-4.297-4.225a25.127 25.127 0 0 0 3.181-1.985l3.708 3.63zm4.535-23.793c0 12.683-10.317 23-23 23s-23-10.317-23-23 10.317-23 23-23 23 10.317 23 23zM60.028 17.2L47.378 4.55c3.53-2.825 8.711-2.603 11.982.668 3.271 3.27 3.493 8.452.668 11.982z"/><path d="M32.996 30.724V20.495h-2v10.229c-1.721.447-3 1.999-3 3.858 0 1.09.441 2.078 1.15 2.8l-4.95 6.6 1.6 1.199 5.083-6.778c.357.105.727.179 1.117.179 2.206 0 4-1.794 4-4 0-1.859-1.279-3.411-3-3.858zm-1 5.858c-1.103 0-2-.898-2-2 0-1.103.897-2 2-2 1.102 0 2 .897 2 2 0 1.102-.897 2-2 2zM35 40.58h2v2h-2zm4 0h2v2h-2zm-4 4h2v2h-2zm4 0h2v2h-2zm4-4h2v2h-2z"/></symbol><symbol id="planning-03-coordinating" viewBox="0 0 480 480"><path d="M176 32c-26.472 0-48 21.528-48 48s21.528 48 48 48 48-21.528 48-48-21.528-48-48-48zm0 80c-17.648 0-32-14.352-32-32s14.352-32 32-32 32 14.352 32 32-14.352 32-32 32z"/><path d="M472 0H8C3.576 0 0 3.584 0 8v288c0 4.416 3.576 8 8 8h64v24.72c-22.664 3.832-40 23.544-40 47.28 0 16.688 8.568 31.392 21.52 40C40.568 424.608 32 439.312 32 456v24h16v-24c0-17.648 14.352-32 32-32s32 14.352 32 32v24h16v-24c0-17.648 14.352-32 32-32s32 14.352 32 32v24h16v-24c0-17.648 14.352-32 32-32s32 14.352 32 32v24h16v-24c0-17.648 14.352-32 32-32s32 14.352 32 32v24h16v-24c0-17.648 14.352-32 32-32s32 14.352 32 32v24h16v-24c0-16.688-8.568-31.392-21.52-40 12.96-8.608 21.52-23.312 21.52-40 0-23.736-17.336-43.448-40-47.28V304h64c4.424 0 8-3.584 8-8V8c0-4.416-3.576-8-8-8zM80 408c-17.648 0-32-14.352-32-32s14.352-32 32-32 32 14.352 32 32-14.352 32-32 32zm89.76-210.992a8.005 8.005 0 0 0 12.488-.008L213 158.56l54.144-23.208a7.785 7.785 0 0 0 2.056-1.28l50.376-43.176L332.688 104l-49.432 49.424-62.832 31.416A8.009 8.009 0 0 0 216 192v64h-80v-64c0-2.12-.84-4.16-2.344-5.656L70.992 123.68 50.32 61.664l16.696-4.168 21.496 57.32a8.057 8.057 0 0 0 2.368 3.336l47.384 39.488 31.496 39.368zM160.648 160h30.712L176 179.192 160.648 160zM392 272v56.72c-13.328 2.248-24.808 9.968-32 20.8-8.608-12.96-23.312-21.52-40-21.52s-31.392 8.568-40 21.52c-8.608-12.96-23.312-21.52-40-21.52s-31.392 8.568-40 21.52c-8.608-12.96-23.312-21.52-40-21.52s-31.392 8.568-40 21.52c-7.192-10.832-18.672-18.552-32-20.8V272h304zM120 429.52A48.349 48.349 0 0 0 106.48 416c5.36-3.56 9.96-8.16 13.52-13.52 3.56 5.36 8.16 9.96 13.52 13.52A48.349 48.349 0 0 0 120 429.52zM160 408c-17.648 0-32-14.352-32-32s14.352-32 32-32 32 14.352 32 32-14.352 32-32 32zm40 21.52A48.349 48.349 0 0 0 186.48 416c5.36-3.56 9.96-8.16 13.52-13.52 3.56 5.36 8.16 9.96 13.52 13.52A48.349 48.349 0 0 0 200 429.52zM240 408c-17.648 0-32-14.352-32-32s14.352-32 32-32 32 14.352 32 32-14.352 32-32 32zm40 21.52A48.349 48.349 0 0 0 266.48 416c5.36-3.56 9.96-8.16 13.52-13.52 3.56 5.36 8.16 9.96 13.52 13.52A48.349 48.349 0 0 0 280 429.52zM320 408c-17.648 0-32-14.352-32-32s14.352-32 32-32 32 14.352 32 32-14.352 32-32 32zm40 21.52A48.349 48.349 0 0 0 346.48 416c5.36-3.56 9.96-8.16 13.52-13.52 3.56 5.36 8.16 9.96 13.52 13.52A48.349 48.349 0 0 0 360 429.52zM432 376c0 17.648-14.352 32-32 32s-32-14.352-32-32 14.352-32 32-32 32 14.352 32 32zm32-88h-56v-24c0-4.416-3.576-8-8-8H232v-59.056l59.576-29.792a7.847 7.847 0 0 0 2.08-1.504l56-56a7.991 7.991 0 0 0 0-11.312l-24-24c-2.96-2.96-7.696-3.144-10.856-.416l-55.072 47.2L206.36 144h-59.464l-44.152-36.792-23.256-62.016a8.01 8.01 0 0 0-9.432-4.952l-32 8c-2.168.536-4 1.96-5.08 3.912a7.98 7.98 0 0 0-.568 6.384l24 72a8.086 8.086 0 0 0 1.928 3.128L120 195.312V256H80c-4.424 0-8 3.584-8 8v24H16V16h448v272z"/><path d="M256 40h184v16H256zm104 32h80v16h-80zm8 32h72v16h-72zm-32 32h104v16H336zm-32 32h136v16H304zm-48 32h184v16H256zm104 88h16v16h-16zm-32 0h16v16h-16zm-32 0h16v16h-16z"/></symbol><symbol id="problems-03-schedule" viewBox="0 0 480 480"><path d="M440 64h-8V24c0-13.232-10.768-24-24-24h-16c-13.232 0-24 10.768-24 24v40H112V24c0-13.232-10.768-24-24-24H72C58.768 0 48 10.768 48 24v40h-8C17.944 64 0 81.944 0 104v336c0 22.056 17.944 40 40 40h400c22.056 0 40-17.944 40-40V104c0-22.056-17.944-40-40-40zm-56 8V24c0-4.416 3.584-8 8-8h16c4.416 0 8 3.584 8 8v80c0 4.416-3.584 8-8 8h-16c-4.416 0-8-3.584-8-8V72zM64 72V24c0-4.416 3.584-8 8-8h16c4.416 0 8 3.584 8 8v80c0 4.416-3.584 8-8 8H72c-4.416 0-8-3.584-8-8V72zm400 368c0 13.232-10.768 24-24 24H40c-13.232 0-24-10.768-24-24V208h448v232zm0-248H16v-88c0-13.232 10.768-24 24-24h8v24c0 13.232 10.768 24 24 24h16c13.232 0 24-10.768 24-24V80h256v24c0 13.232 10.768 24 24 24h16c13.232 0 24-10.768 24-24V80h8c13.232 0 24 10.768 24 24v88z"/><path d="M328 104H152c-4.424 0-8 3.576-8 8v48c0 4.424 3.576 8 8 8h176c4.424 0 8-3.576 8-8v-48c0-4.424-3.576-8-8-8zm-8 48H160v-32h160v32zm-216 80H56c-4.424 0-8 3.576-8 8v40c0 4.424 3.576 8 8 8h48c4.424 0 8-3.576 8-8v-40c0-4.424-3.576-8-8-8zm-8 40H64v-24h32v24zm112-40h-48c-4.424 0-8 3.576-8 8v40c0 4.424 3.576 8 8 8h48c4.424 0 8-3.576 8-8v-40c0-4.424-3.576-8-8-8zm-8 40h-32v-24h32v24zm120-40h-48c-4.424 0-8 3.576-8 8v40c0 4.424 3.576 8 8 8h48c4.424 0 8-3.576 8-8v-40c0-4.424-3.576-8-8-8zm-8 40h-32v-24h32v24zm112-40h-48c-4.424 0-8 3.576-8 8v40c0 4.424 3.576 8 8 8h48c4.424 0 8-3.576 8-8v-40c0-4.424-3.576-8-8-8zm-8 40h-32v-24h32v24zm-312 40H56c-4.424 0-8 3.576-8 8v40c0 4.424 3.576 8 8 8h48c4.424 0 8-3.576 8-8v-40c0-4.424-3.576-8-8-8zm-8 40H64v-24h32v24zm112-40h-48c-4.424 0-8 3.576-8 8v40c0 4.424 3.576 8 8 8h48c4.424 0 8-3.576 8-8v-40c0-4.424-3.576-8-8-8zm-8 40h-32v-24h32v24zm120-40h-48c-4.424 0-8 3.576-8 8v40c0 4.424 3.576 8 8 8h48c4.424 0 8-3.576 8-8v-40c0-4.424-3.576-8-8-8zm-8 40h-32v-24h32v24zm112-40h-48c-4.424 0-8 3.576-8 8v40c0 4.424 3.576 8 8 8h48c4.424 0 8-3.576 8-8v-40c0-4.424-3.576-8-8-8zm-8 40h-32v-24h32v24zm-312 40H56c-4.424 0-8 3.576-8 8v40c0 4.424 3.576 8 8 8h48c4.424 0 8-3.576 8-8v-40c0-4.424-3.576-8-8-8zm-8 40H64v-24h32v24zm112-40h-48c-4.424 0-8 3.576-8 8v40c0 4.424 3.576 8 8 8h48c4.424 0 8-3.576 8-8v-40c0-4.424-3.576-8-8-8zm-8 40h-32v-24h32v24zm121.856-45.12l-34.392 41.272-17.808-17.808-11.312 11.312 24 24A7.946 7.946 0 0 0 288 448c.12 0 .24 0 .36-.008a8.056 8.056 0 0 0 5.792-2.864l40-48-12.296-10.248zm96 0l-34.392 41.272-17.808-17.808-11.312 11.312 24 24A7.946 7.946 0 0 0 384 448c.12 0 .24 0 .36-.008a8.056 8.056 0 0 0 5.792-2.864l40-48-12.296-10.248z"/></symbol><symbol id="planning-02-approach" viewBox="0 0 480 480"><path d="M176 304c-26.472 0-48 21.528-48 48s21.528 48 48 48 48-21.528 48-48-21.528-48-48-48zm0 80c-17.648 0-32-14.352-32-32s14.352-32 32-32 32 14.352 32 32-14.352 32-32 32zm0-304c-26.472 0-48 21.528-48 48s21.528 48 48 48 48-21.528 48-48-21.528-48-48-48zm0 80c-17.648 0-32-14.352-32-32s14.352-32 32-32 32 14.352 32 32-14.352 32-32 32zM48 304c-26.472 0-48 21.528-48 48s21.528 48 48 48 48-21.528 48-48-21.528-48-48-48zm0 80c-17.648 0-32-14.352-32-32s14.352-32 32-32 32 14.352 32 32-14.352 32-32 32zm0-304c-26.472 0-48 21.528-48 48s21.528 48 48 48 48-21.528 48-48-21.528-48-48-48zm0 80c-17.648 0-32-14.352-32-32s14.352-32 32-32 32 14.352 32 32-14.352 32-32 32zm256 32c-26.472 0-48 21.528-48 48s21.528 48 48 48 48-21.528 48-48-21.528-48-48-48zm0 80c-17.648 0-32-14.352-32-32s14.352-32 32-32 32 14.352 32 32-14.352 32-32 32zm0 32c-26.472 0-48 21.528-48 48s21.528 48 48 48 48-21.528 48-48-21.528-48-48-48zm0 80c-17.648 0-32-14.352-32-32s14.352-32 32-32 32 14.352 32 32-14.352 32-32 32z"/><path d="M456 254.496V88a8.004 8.004 0 0 0-3.64-6.712 8.02 8.02 0 0 0-7.608-.6l-72 32A7.99 7.99 0 0 0 368 120a7.99 7.99 0 0 0 4.752 7.312L440 157.2v91.52c-2.608-.44-5.272-.72-8-.72-10.056 0-19.392 3.12-27.112 8.432L345.36 152.248c4.192-7.128 6.64-15.4 6.64-24.248 0-26.472-21.528-48-48-48s-48 21.528-48 48c0 7.968 1.984 15.472 5.432 22.088l-61.88 48.128C192.584 194.28 184.56 192 176 192c-23.736 0-43.448 17.336-47.28 40H95.28c-3.824-22.664-23.536-40-47.28-40-26.472 0-48 21.528-48 48s21.528 48 48 48c23.736 0 43.448-17.336 47.28-40h33.448c3.824 22.664 23.536 40 47.28 40 26.472 0 48-21.528 48-48 0-12-4.456-22.96-11.76-31.384l58.848-45.768C279.688 170.976 291.256 176 304 176c11.488 0 22.04-4.064 30.312-10.824l58.736 102.792.104-.064C387.424 275.816 384 285.504 384 296c0 26.472 21.528 48 48 48s48-21.528 48-48c0-17.72-9.68-33.192-24-41.504zM48 272c-17.648 0-32-14.352-32-32s14.352-32 32-32 32 14.352 32 32-14.352 32-32 32zm128 0c-17.648 0-32-14.352-32-32s14.352-32 32-32 32 14.352 32 32-14.352 32-32 32zm128-112c-17.648 0-32-14.352-32-32s14.352-32 32-32 32 14.352 32 32-14.352 32-32 32zm91.696-40L440 100.312v39.376L395.696 120zM432 328c-17.648 0-32-14.352-32-32s14.352-32 32-32c2.776 0 5.424.464 8 1.136V296h16v-20.944c4.92 5.624 8 12.896 8 20.944 0 17.648-14.352 32-32 32zm-40 32h16v16h-16zm32 0h16v16h-16zm32 0h16v16h-16z"/></symbol><symbol id="problems-01-unequal" viewBox="0 0 64 64"><path d="M59 35.133H33a1 1 0 0 0-1 1v26a1 1 0 0 0 1 1c14.888 0 27-12.112 27-27a1 1 0 0 0-1-1zm-25 25.98v-23.98h23.98c-.513 13-10.988 23.467-23.98 23.98zm22.092-50.072a.999.999 0 0 0-1.414 0L36.293 29.426A1 1 0 0 0 37 31.133h26a1 1 0 0 0 1-1c0-7.212-2.809-13.992-7.908-19.092zM39.414 29.133l15.957-15.957c4.057 4.387 6.376 9.957 6.609 15.957H39.414zm-2.721-24.2A26.873 26.873 0 0 0 27 3.133c-14.888 0-27 12.112-27 27s12.112 27 27 27a1 1 0 0 0 1-1V30.318l9.267-24.092a1.001 1.001 0 0 0-.574-1.293zM26.067 29.774a.981.981 0 0 0-.067.359v24.98c-13.323-.527-24-11.53-24-24.98 0-13.785 11.215-25 25-25 2.749 0 5.447.445 8.034 1.326l-8.967 23.315z"/><path d="M33.455 26.972a1 1 0 0 0 1.252-.132L53.092 8.455a.999.999 0 0 0 0-1.414A26.825 26.825 0 0 0 43.693.933a1.003 1.003 0 0 0-1.292.575l-9.333 24.267a.998.998 0 0 0 .387 1.197zM43.901 3.177a24.782 24.782 0 0 1 7.056 4.585L36.625 22.094l7.276-18.917z"/></symbol><symbol id="problems-04-voices" viewBox="0 0 64 64"><path d="M63.555 42.168L58 38.465V23c0-2.757-2.243-5-5-5h-9v-2h10.5a1 1 0 0 0 .555-1.832L51 11.465V5c0-2.757-2.243-5-5-5h-9c-2.757 0-5 2.243-5 5v5H21c-2.757 0-5 2.243-5 5v12.5l-3.6 2.7A1 1 0 0 0 13 32h10v2H9c-2.757 0-5 2.243-5 5v16.5L.4 58.2A1 1 0 0 0 1 60h32.101A5.009 5.009 0 0 0 38 64h13a1 1 0 0 0 .707-1.707L49 59.586V57c0-2.757-2.243-5-5-5h-4v-8h23a1 1 0 0 0 .555-1.832zM34 5c0-1.654 1.346-3 3-3h9c1.654 0 3 1.346 3 3v7c0 .334.167.646.445.832L51.197 14h-7.298A5.009 5.009 0 0 0 39 10h-5V5zM16 30l1.6-1.2a1 1 0 0 0 .4-.8V15c0-1.654 1.346-3 3-3h18c1.654 0 3 1.346 3 3v3H28c-2.757 0-5 2.243-5 5v7h-7zM4 58l1.6-1.2A1 1 0 0 0 6 56V39c0-1.654 1.346-3 3-3h26c1.654 0 3 1.346 3 3v16c0 1.654-1.346 3-3 3H4zm40-4c1.654 0 3 1.346 3 3v3c0 .266.105.519.293.707L48.586 62H38a2.993 2.993 0 0 1-2.821-2.018C37.851 59.885 40 57.696 40 55v-1h4zm-4-12v-3c0-2.757-2.243-5-5-5H25V23c0-1.654 1.346-3 3-3h25c1.654 0 3 1.346 3 3v16c0 .334.167.646.445.832L59.697 42H40z"/><path d="M27 26h27v2H27zm0 4h4v2h-4zm6 0h2v2h-2zm4 0h2v2h-2zm4 0h2v2h-2zm4 0h9v2h-9zm-4 4h2v2h-2zm4 0h2v2h-2zm4 0h5v2h-5zM20 14h9v2h-9zm11 0h2v2h-2zm4 0h5v2h-5zm-7 8h10v2H28zm12 0h13v2H40zm2 16h12v2H42zm-26.29 1.71l-1.42-1.42-1.29 1.3-1.29-1.3-1.42 1.42 1.3 1.29-1.3 1.29 1.42 1.42 1.29-1.3 1.29 1.3 1.42-1.42-1.3-1.29zm9 0l-1.42-1.42-1.29 1.3-1.29-1.3-1.42 1.42 1.3 1.29-1.3 1.29 1.42 1.42 1.29-1.3 1.29 1.3 1.42-1.42-1.3-1.29zm9 0l-1.42-1.42-1.29 1.3-1.29-1.3-1.42 1.42 1.3 1.29-1.3 1.29 1.42 1.42 1.29-1.3 1.29 1.3 1.42-1.42-1.3-1.29zm-18 12l-1.42-1.42-1.29 1.3-1.29-1.3-1.42 1.42 1.3 1.29-1.3 1.29 1.42 1.42 1.29-1.3 1.29 1.3 1.42-1.42-1.3-1.29zm9 0l-1.42-1.42-1.29 1.3-1.29-1.3-1.42 1.42 1.3 1.29-1.3 1.29 1.42 1.42 1.29-1.3 1.29 1.3 1.42-1.42-1.3-1.29zm9 0l-1.42-1.42-1.29 1.3-1.29-1.3-1.42 1.42 1.3 1.29-1.3 1.29 1.42 1.42 1.29-1.3 1.29 1.3 1.42-1.42-1.3-1.29zM36 4h2v2h-2zm4 0h2v2h-2zm4 0h2v2h-2zm0 4h2v2h-2zM20 18h2v2h-2zM9 46h2v2H9zm4 0h2v2h-2zm4 0h2v2h-2zm4 0h2v2h-2zm4 0h2v2h-2zm4 0h2v2h-2zm4 0h2v2h-2zm9 11h2v2h-2zm3-10h2v2h-2zm4 0h2v2h-2zm4 0h2v2h-2zM0 10h2v2H0zm4 0h2v2H4zm4 0h2v2H8zm4-5h2v2h-2zm4 0h2v2h-2zm4 0h2v2h-2zM0 1h2v2H0zm4 0h2v2H4zm4 0h2v2H8zm54 54v-2h-2v2h-2v2h2v2h2v-2h2v-2zM13.243 19.03a5.86 5.86 0 0 1-4.272-4.273 1.001 1.001 0 0 0-1.941 0 5.864 5.864 0 0 1-4.272 4.273.999.999 0 0 0 0 1.94 5.86 5.86 0 0 1 4.272 4.272.999.999 0 0 0 1.94.001 5.86 5.86 0 0 1 4.272-4.272 1.001 1.001 0 0 0 .001-1.941zM8 22.477A7.863 7.863 0 0 0 5.523 20 7.856 7.856 0 0 0 8 17.522 7.867 7.867 0 0 0 10.477 20 7.874 7.874 0 0 0 8 22.477z"/></symbol><symbol id="problems-06-social" viewBox="0 0 56 56"><path d="M12 24c3.309 0 6-2.691 6-6s-2.691-6-6-6-6 2.691-6 6 2.691 6 6 6zm0-10c2.206 0 4 1.794 4 4s-1.794 4-4 4-4-1.794-4-4 1.794-4 4-4zm32 10c3.309 0 6-2.691 6-6s-2.691-6-6-6-6 2.691-6 6 2.691 6 6 6zm0-10c2.206 0 4 1.794 4 4s-1.794 4-4 4-4-1.794-4-4 1.794-4 4-4zm10 12v13c0 1.654-1.346 3-3 3V31c0-2.757-2.243-5-5-5h-5a1 1 0 0 0-1 1v6h-8a1 1 0 0 0-1 1v3h-6v-3a1 1 0 0 0-1-1h-8v-6a1 1 0 0 0-1-1h-5c-2.757 0-5 2.243-5 5v11c-1.654 0-3-1.346-3-3V26H0v13a5.003 5.003 0 0 0 3 4.576V56h2V44h10v11a1 1 0 0 0 1 1h5V39h14v17h5a1 1 0 0 0 1-1V44h10v12h2V43.576A5.003 5.003 0 0 0 56 39V26h-2zM20 37h-8v-6h-2v7a1 1 0 0 0 1 1h7c.551 0 1 .449 1 1v14h-2V43a1 1 0 0 0-1-1H7V31c0-1.654 1.346-3 3-3h4v6a1 1 0 0 0 1 1h8v2h-3zm20 5a1 1 0 0 0-1 1v11h-2V40c0-.551.449-1 1-1h7a1 1 0 0 0 1-1v-7h-2v6H33v-2h8a1 1 0 0 0 1-1v-6h4c1.654 0 3 1.346 3 3v11h-9zM19 10v3a1 1 0 0 0 1.8.6l2.7-3.6H31c1.654 0 3-1.346 3-3V3c0-1.654-1.346-3-3-3H19c-1.654 0-3 1.346-3 3v4c0 1.654 1.346 3 3 3zm-1-7c0-.551.449-1 1-1h12c.551 0 1 .449 1 1v4c0 .551-.449 1-1 1h-8a1 1 0 0 0-.8.4L21 10V9a1 1 0 0 0-1-1h-1c-.551 0-1-.449-1-1V3z"/><path d="M20 4h10v2H20zm7 21h6v2h-6z"/><path d="M26 21c-1.654 0-3 1.346-3 3v4c0 1.654 1.346 3 3 3h8c1.654 0 3-1.346 3-3v-.697l1.832-2.748A.998.998 0 0 0 38 23h-1.171A3.006 3.006 0 0 0 34 21h-8zm9 3a1 1 0 0 0 1 1h.131l-.963 1.445A1.006 1.006 0 0 0 35 27v1c0 .551-.449 1-1 1h-8c-.551 0-1-.449-1-1v-4c0-.551.449-1 1-1h8c.551 0 1 .449 1 1zm-12-8h2v2h-2zm4 0h2v2h-2zm4 0h2v2h-2z"/></symbol><symbol id="problems-07-alone" viewBox="0 0 480 480"><path d="M448 368h-24V40c0-22.056-17.944-40-40-40H48c-4.416 0-8 3.584-8 8v48H24C10.768 56 0 66.768 0 80s10.768 24 24 24h16v32H24c-13.232 0-24 10.768-24 24s10.768 24 24 24h16v32H24c-13.232 0-24 10.768-24 24s10.768 24 24 24h16v32H24c-13.232 0-24 10.768-24 24s10.768 24 24 24h16v32H24c-13.232 0-24 10.768-24 24s10.768 24 24 24h16v48c0 4.416 3.584 8 8 8h336c22.056 0 40-17.944 40-40v-8h24c17.648 0 32-14.352 32-32s-14.352-32-32-32zM24 88c-4.408 0-8-3.592-8-8s3.592-8 8-8h47.144c3.04 0 5.784 1.488 7.384 3.648.16.232.336.448.472.696.248.424.384.888.528 1.352.16.512.272 1.032.32 1.584.048.648 0 1.264-.088 1.888-.072.48-.128.96-.28 1.4-.216.624-.56 1.2-.936 1.76-.232.352-.416.736-.704 1.04-.52.56-1.144.968-1.784 1.352-.288.176-.52.424-.832.56A7.808 7.808 0 0 1 72 88H24zm0 80c-4.408 0-8-3.592-8-8s3.592-8 8-8h47.144c3.04 0 5.784 1.488 7.384 3.648.16.232.336.448.472.696.248.424.384.888.528 1.352.16.512.272 1.032.32 1.584.048.648 0 1.264-.088 1.888-.072.48-.128.96-.28 1.4-.216.624-.56 1.2-.936 1.76-.232.352-.416.736-.704 1.04-.52.56-1.144.968-1.784 1.352-.288.176-.52.424-.832.56A7.808 7.808 0 0 1 72 168H24zm0 80c-4.408 0-8-3.592-8-8 0-4.408 3.592-8 8-8h47.144c3.04 0 5.784 1.488 7.384 3.648.16.232.336.448.472.696.248.424.384.888.528 1.352.16.512.272 1.032.32 1.584.048.648 0 1.264-.088 1.888-.072.48-.128.96-.28 1.4-.216.624-.56 1.2-.936 1.76-.232.352-.416.736-.704 1.04-.52.56-1.144.968-1.784 1.352-.288.176-.52.424-.832.56A7.808 7.808 0 0 1 72 248H24zm0 80c-4.408 0-8-3.592-8-8 0-4.408 3.592-8 8-8h47.144c3.04 0 5.784 1.488 7.384 3.648.16.232.336.448.472.696.248.424.384.888.528 1.352.16.512.272 1.032.32 1.584.048.648 0 1.264-.088 1.888-.072.48-.128.96-.28 1.4-.216.624-.56 1.2-.936 1.76-.232.352-.416.736-.704 1.04-.52.56-1.144.968-1.784 1.352-.288.176-.52.424-.832.56A7.808 7.808 0 0 1 72 328H24zm0 80c-4.408 0-8-3.592-8-8 0-4.408 3.592-8 8-8h47.144c3.04 0 5.784 1.488 7.384 3.648.16.232.336.448.472.696.248.424.384.888.528 1.352.16.512.272 1.032.32 1.584.048.648 0 1.264-.088 1.888-.072.48-.128.96-.28 1.4-.216.624-.56 1.2-.936 1.76-.232.352-.416.736-.704 1.04-.52.56-1.144.968-1.784 1.352-.288.176-.52.424-.832.56A7.808 7.808 0 0 1 72 408H24zm384 8h-16v-32h16v32zm0-48H176c-1.08 0-2.16.216-3.152.648l-56 24A7.99 7.99 0 0 0 112 400a7.99 7.99 0 0 0 4.848 7.352l56 24A7.912 7.912 0 0 0 176 432h232v8c0 13.232-10.768 24-24 24H56v-40h16c1.72 0 3.4-.2 5.016-.544.504-.112.976-.32 1.472-.456 1.088-.312 2.176-.624 3.2-1.08.6-.264 1.152-.624 1.736-.944.856-.464 1.704-.928 2.488-1.496.576-.416 1.104-.888 1.648-1.36.712-.616 1.4-1.24 2.04-1.928.216-.232.48-.408.688-.648.272-.312.44-.688.688-1.016a24.745 24.745 0 0 0 1.592-2.352c.36-.6.696-1.2 1-1.832.424-.88.768-1.8 1.088-2.736.208-.624.432-1.24.584-1.888.24-.976.368-1.976.488-2.992.08-.672.184-1.328.2-2.008.008-.248.072-.472.072-.72 0-.8-.16-1.552-.24-2.336-.048-.544 0-1.088-.088-1.64-.024-.168-.096-.312-.128-.472-.112-.584-.296-1.128-.448-1.696-.232-.856-.456-1.712-.784-2.528-.32-.824-.728-1.592-1.128-2.368-.216-.4-.408-.816-.648-1.2C88.336 380.752 80.744 376 72 376H56v-32h16c1.72 0 3.4-.2 5.016-.544.504-.112.976-.32 1.472-.456 1.088-.312 2.176-.624 3.2-1.08.6-.264 1.152-.624 1.736-.944.856-.464 1.704-.928 2.488-1.496.576-.416 1.104-.888 1.648-1.36.712-.616 1.4-1.24 2.04-1.928.216-.232.48-.408.688-.648.272-.312.44-.688.688-1.016a24.745 24.745 0 0 0 1.592-2.352c.36-.6.696-1.2 1-1.832.424-.88.768-1.8 1.088-2.736.208-.624.432-1.24.584-1.888.24-.976.368-1.976.488-2.992.08-.672.184-1.328.2-2.008.008-.248.072-.472.072-.72 0-.8-.16-1.552-.24-2.336-.048-.544 0-1.088-.088-1.64-.024-.168-.096-.312-.128-.472-.112-.584-.296-1.128-.448-1.696-.232-.856-.456-1.712-.784-2.528-.32-.824-.728-1.592-1.128-2.368-.216-.4-.408-.816-.648-1.2C88.336 300.752 80.744 296 72 296H56v-32h16c1.72 0 3.4-.2 5.016-.544.504-.112.976-.32 1.472-.456 1.088-.312 2.176-.624 3.2-1.08.6-.264 1.152-.624 1.736-.944.856-.464 1.704-.928 2.488-1.496.576-.416 1.104-.888 1.648-1.36.712-.616 1.4-1.24 2.04-1.928.216-.232.48-.408.688-.648.272-.312.44-.688.688-1.016a24.745 24.745 0 0 0 1.592-2.352c.36-.6.696-1.2 1-1.832.424-.88.768-1.8 1.088-2.736.208-.624.432-1.24.584-1.888.24-.976.368-1.976.488-2.992.08-.672.184-1.328.2-2.008.008-.248.072-.472.072-.72 0-.8-.16-1.552-.24-2.336-.048-.544 0-1.088-.088-1.64-.024-.168-.096-.312-.128-.472-.112-.584-.296-1.128-.448-1.696-.232-.856-.456-1.712-.784-2.528-.32-.824-.728-1.592-1.128-2.368-.216-.4-.408-.816-.648-1.2C88.336 220.752 80.744 216 72 216H56v-32h16c1.72 0 3.4-.2 5.016-.544.504-.112.976-.32 1.472-.456 1.088-.312 2.176-.624 3.2-1.08.6-.264 1.152-.624 1.736-.944.856-.464 1.704-.928 2.488-1.496.576-.416 1.104-.888 1.648-1.36.712-.616 1.4-1.24 2.04-1.928.216-.232.48-.408.688-.648.272-.312.44-.688.688-1.016a24.745 24.745 0 0 0 1.592-2.352c.36-.6.696-1.2 1-1.832.424-.88.768-1.8 1.088-2.736.208-.624.432-1.24.584-1.888.24-.976.368-1.976.488-2.992.08-.672.184-1.328.2-2.008.008-.248.072-.472.072-.72 0-.8-.16-1.552-.24-2.336-.048-.544 0-1.088-.088-1.64-.024-.168-.096-.312-.128-.472-.112-.584-.296-1.128-.448-1.696-.232-.856-.456-1.712-.784-2.528-.32-.824-.728-1.592-1.128-2.368-.216-.4-.408-.816-.648-1.2C88.336 140.752 80.744 136 72 136H56v-32h16c1.72 0 3.4-.2 5.016-.544.504-.112.976-.32 1.472-.456 1.088-.312 2.176-.624 3.2-1.08.6-.264 1.152-.624 1.736-.944.856-.464 1.704-.928 2.488-1.496.576-.416 1.104-.888 1.648-1.36.712-.616 1.4-1.24 2.04-1.928.216-.232.48-.408.688-.648.272-.312.44-.688.688-1.016a24.745 24.745 0 0 0 1.592-2.352c.36-.6.696-1.2 1-1.832.424-.88.768-1.8 1.088-2.736.208-.624.432-1.24.584-1.888.24-.976.368-1.976.488-2.992.08-.672.184-1.328.2-2.008.008-.248.072-.472.072-.72 0-.8-.16-1.552-.24-2.336-.048-.544 0-1.088-.088-1.64-.024-.168-.096-.312-.128-.472-.112-.584-.296-1.128-.448-1.696-.232-.856-.456-1.712-.784-2.528-.32-.824-.728-1.592-1.128-2.368-.216-.4-.408-.816-.648-1.2C88.336 60.752 80.744 56 72 56H56V16h328c13.232 0 24 10.768 24 24v328zm-32 16v32H184v-32h192zm-208 4.128v23.744L140.312 400 168 388.128zM448 416h-24v-32h24c8.824 0 16 7.176 16 16s-7.176 16-16 16z"/><path d="M192 264h-64c-4.416 0-8 3.584-8 8v64c0 4.416 3.584 8 8 8h64c4.416 0 8-3.584 8-8v-64c0-4.416-3.584-8-8-8zm-8 64h-48v-48h48v48zm32-64h160v16H216zm0 32h160v16H216zm0 32h160v16H216zm-24-168h-64c-4.416 0-8 3.584-8 8v64c0 4.416 3.584 8 8 8h64c4.416 0 8-3.584 8-8v-64c0-4.416-3.584-8-8-8zm-8 64h-48v-48h48v48zm32-64h160v16H216zm0 32h160v16H216zm0 32h160v16H216zM192 56h-64c-4.416 0-8 3.584-8 8v64c0 4.416 3.584 8 8 8h64c4.416 0 8-3.584 8-8V64c0-4.416-3.584-8-8-8zm-8 64h-48V72h48v48zm32-64h160v16H216zm0 32h160v16H216zm0 32h160v16H216z"/></symbol><symbol id="problems-05-issues" viewBox="0 0 64 64"><path d="M29 44h6v2h-6zm-1-11c0 .249-1.064 1-3 1s-3-.751-3-1h-2c0 1.71 2.149 3 5 3s5-1.29 5-3h-2zm14 0c0 .249-1.064 1-3 1s-3-.751-3-1h-2c0 1.71 2.149 3 5 3s5-1.29 5-3h-2zM0 21h3v2H0zm4-4h2v2H4zm-4 0h2v2H0zm58 1h2v2h-2zm4 0h2v2h-2zM52 4h2v2h-2zm4 0h2v2h-2zm4 0h2v2h-2zM4 0h2v2H4zm4 0h2v2H8zm4 0h2v2h-2zm19 5h2v2h-2zm4 0h2v2h-2zm-9 11h2v2h-2zm4 0h2v2h-2zm9-11h2v2h-2z"/><path d="M63.708 62.293l-5.243-5.243a6.954 6.954 0 0 0-4.95-2.05H45c-2.702 0-4.896-2.158-4.984-4.839 4.705-5.968 7.487-13.215 7.942-20.943L48.03 28H64v-2H48.146a16.046 16.046 0 0 0-.801-6H56v-2h-9.464a16.17 16.17 0 0 0-2.745-3.949C40.72 10.794 36.563 9 32.087 9a15.91 15.91 0 0 0-10.609 4H5v2h14.574a15.895 15.895 0 0 0-3.052 6H5v2h11.141a16.338 16.338 0 0 0-.113 3.031l.188 3.188c.45 7.659 3.187 14.845 7.816 20.782H24c0 2.757-2.243 5-5 5h-8.515c-1.87 0-3.628.728-4.95 2.05L.292 62.294A.997.997 0 0 0 0 63v1h2v-.586l4.95-4.95A4.972 4.972 0 0 1 10.485 57H19c3.162 0 5.838-2.109 6.703-4.993.853.95 1.755 1.863 2.711 2.732.184.167.424.26.673.26h6c.248 0 .489-.093.673-.26a38.172 38.172 0 0 0 2.583-2.585C39.254 54.964 41.892 57 45 57h8.515a4.97 4.97 0 0 1 3.536 1.464l4.95 4.95V64h2v-1c0-.265-.106-.52-.293-.707zM34.697 53h-5.221c-6.729-6.249-10.725-14.72-11.265-23.899l-.188-3.188c-.057-.986-.013-1.96.127-2.913h5.436l-1.293 1.293 1.414 1.414L27.414 22l-3.707-3.707-1.414 1.414L23.586 21h-4.973a14.003 14.003 0 0 1 3.225-5.577A13.954 13.954 0 0 1 32.087 11c3.92 0 7.56 1.571 10.249 4.423A14.2 14.2 0 0 1 44.255 18h-6.841l1.293-1.293-1.414-1.414L33.586 19l3.707 3.707 1.414-1.414L37.414 20h7.809a14.026 14.026 0 0 1 .926 5.914l-.005.086h-4.73l1.293-1.293-1.414-1.414L37.586 27l3.707 3.707 1.414-1.414L41.414 28h4.613l-.065 1.101c-.54 9.18-4.536 17.652-11.265 23.899z"/></symbol><symbol id="roles-01-strength" viewBox="0 0 469.57 469.57"><path d="M43.34 34.33h16v16h-16zm32 0h16v16h-16zm32 0h16v16h-16zm288.001 71.997h-16c0 13.232-10.768 24-24 24v16c13.232 0 24 10.768 24 24h16c0-13.232 10.768-24 24-24v-16c-13.232 0-24-10.768-24-24zm-8 40.248a39.904 39.904 0 0 0-8.248-8.248 39.904 39.904 0 0 0 8.248-8.248 39.904 39.904 0 0 0 8.248 8.248 39.904 39.904 0 0 0-8.248 8.248zm56-128.248h-16c0 13.232-10.768 24-24 24v16c13.232 0 24 10.768 24 24h16c0-13.232 10.768-24 24-24v-16c-13.232 0-24-10.768-24-24zm-8 40.248a39.904 39.904 0 0 0-8.248-8.248 39.904 39.904 0 0 0 8.248-8.248 39.904 39.904 0 0 0 8.248 8.248 39.904 39.904 0 0 0-8.248 8.248z"/><path d="M286.693 452.759c-80.384-6.8-172.288-36.936-245.848-80.64l-21.816-12.952c3.248-7.6 5.128-15.544 6.96-23.28a437.44 437.44 0 0 1 1.672-6.92c1.688-6.616 3.56-17.4 5.728-29.872 3.12-17.96 7-40.312 10.504-49.296l47.92-122.816c1.048-2.68 2-5.568 2.976-8.52 2.592-7.888 5.28-16.056 10.304-20.472 2.832-2.496 6.52-4.352 10.08-5.992a6.682 6.682 0 0 0 1.168-.664l94.824-72.616a12.933 12.933 0 0 1 16.032.16l47.552 38.04a12.94 12.94 0 0 1 4.864 9.856 12.977 12.977 0 0 1-4.432 10.064l-30.336 26.536c-5.152 4.504-12.928 4.224-17.752-.584a12.942 12.942 0 0 1-3.744-10.472 12.982 12.982 0 0 1 5.736-9.536l2.688-1.8-8.888-13.296-2.68 1.792a28.893 28.893 0 0 0-12.776 21.264c-.864 8.68 2.184 17.192 8.352 23.36 10.76 10.768 28.16 11.344 39.592 1.32l25.512-22.32 7.848 11.776-47.928 41.088-57.256-7.16a174.14 174.14 0 0 1 3.04-12.2l-15.36-4.456a187.94 187.94 0 0 0-7.408 56.824c.24 10.328 1.344 20.616 2.416 30.568 1.248 11.696 2.432 22.744 2.36 33.936-.216 33.512-13.2 64.8-34.728 83.672l10.544 12.032c15.24-13.36 26.528-31.384 33.216-52 2.416-.808 5.488-.752 8.504-.496 10.504.936 20.704 3.816 30.28 8.128a95.153 95.153 0 0 0-9.456 20.024l15.168 5.096c2.064-6.152 4.896-11.976 8.376-17.424.192.128.4.224.584.352l7.672-11.192c15.072-16.88 37.28-28.648 63.112-32.512 38.68-5.8 74.64 7.464 94.008 34.536l13.016-9.312c-8.032-11.224-18.448-20.4-30.464-27.36 23.176-19.288 56.72-26.232 85.32-16.296l5.248-15.112c-36.064-12.56-78.752-2.4-106.168 23.952-19.04-7.256-40.848-9.608-63.32-6.232-29.912 4.464-55.688 18.336-73.232 38.296-12.112-5.928-25.256-9.664-38.744-10.872a57.42 57.42 0 0 0-5.6-.216 148.075 148.075 0 0 0 2.656-26.952c.08-12.112-1.208-24.128-2.456-35.752-1.032-9.624-2.096-19.576-2.32-29.24-.192-8.032.256-16.04 1.184-23.984l61.328 7.664c.352.024.688.048 1.016.048 1.896 0 3.752-.68 5.2-1.928l56-48a7.988 7.988 0 0 0 1.456-10.504l-14.032-21.056c2.392-4.384 3.768-9.288 3.656-14.424a28.939 28.939 0 0 0-10.872-22.008l-47.544-38.04a28.937 28.937 0 0 0-35.792-.336l-90.584 69.696-2.96 2.024c-4.28 1.992-9.144 4.536-13.328 8.216-8.288 7.288-11.832 18.016-14.944 27.488-.872 2.664-1.736 5.28-2.68 7.712l-47.92 122.816c-4.088 10.48-7.792 31.784-11.368 52.376-2.024 11.64-3.928 22.64-5.464 28.664a408.187 408.187 0 0 0-1.744 7.176c-2.24 9.488-4.36 18.44-8.776 26.056-2.192 3.792-.928 8.648 2.832 10.88l28.184 16.744c75.544 44.872 170 75.832 252.68 82.824 6.408.544 14.48.864 23.696.864 45.992 0 120.184-8.048 155.384-37.064l-10.168-12.344c-36.352 29.968-127.08 36.008-167.56 32.6z"/></symbol><symbol id="what-01-same" viewBox="0 0 512 512"><path d="M120 88h-4.32C123.312 79.496 128 68.304 128 56c0-26.472-21.528-48-48-48S32 29.528 32 56c0 12.304 4.688 23.496 12.32 32H40c-22.056 0-40 17.944-40 40v56c0 4.424 3.584 8 8 8h24v96c0 4.424 3.584 8 8 8h80c4.416 0 8-3.576 8-8v-96h24c4.416 0 8-3.576 8-8v-56c0-22.056-17.944-40-40-40zM80 24c17.648 0 32 14.352 32 32S97.648 88 80 88 48 73.648 48 56s14.352-32 32-32zm64 152h-16v-48h-16v152H88v-88H72v88H48V128H32v48H16v-48c0-13.232 10.768-24 24-24h80c13.232 0 24 10.768 24 24v48zm-24 216h-4.32c7.632-8.504 12.32-19.696 12.32-32 0-26.472-21.528-48-48-48s-48 21.528-48 48c0 12.304 4.688 23.496 12.32 32H40c-22.056 0-40 17.944-40 40v56c0 4.424 3.584 8 8 8h24v8h16v-72H32v48H16v-48c0-13.232 10.768-24 24-24h80c13.232 0 24 10.768 24 24v48h-16v-48h-16v72h16v-8h24c4.416 0 8-3.576 8-8v-56c0-22.056-17.944-40-40-40zm-40 0c-17.648 0-32-14.352-32-32s14.352-32 32-32 32 14.352 32 32-14.352 32-32 32zM296 88h-4.32C299.312 79.496 304 68.304 304 56c0-26.472-21.528-48-48-48s-48 21.528-48 48c0 12.304 4.688 23.496 12.32 32H216c-22.056 0-40 17.944-40 40v56c0 4.424 3.584 8 8 8h24v96c0 4.424 3.584 8 8 8h80c4.416 0 8-3.576 8-8v-96h24c4.416 0 8-3.576 8-8v-56c0-22.056-17.944-40-40-40zm-40-64c17.648 0 32 14.352 32 32s-14.352 32-32 32-32-14.352-32-32 14.352-32 32-32zm64 152h-16v-48h-16v152h-24v-88h-16v88h-24V128h-16v48h-16v-48c0-13.232 10.768-24 24-24h80c13.232 0 24 10.768 24 24v48zm152-88h-4.32C475.312 79.496 480 68.304 480 56c0-26.472-21.528-48-48-48s-48 21.528-48 48c0 12.304 4.688 23.496 12.32 32H392c-22.056 0-40 17.944-40 40v56c0 4.424 3.584 8 8 8h24v96c0 4.424 3.584 8 8 8h80c4.416 0 8-3.576 8-8v-96h24c4.416 0 8-3.576 8-8v-56c0-22.056-17.944-40-40-40zm-40-64c17.648 0 32 14.352 32 32s-14.352 32-32 32-32-14.352-32-32 14.352-32 32-32zm64 152h-16v-48h-16v152h-24v-88h-16v88h-24V128h-16v48h-16v-48c0-13.232 10.768-24 24-24h80c13.232 0 24 10.768 24 24v48zM296 392h-4.32c7.632-8.504 12.32-19.696 12.32-32 0-26.472-21.528-48-48-48s-48 21.528-48 48c0 12.304 4.688 23.496 12.32 32H216c-22.056 0-40 17.944-40 40v56c0 4.424 3.584 8 8 8h24v8h16v-72h-16v48h-16v-48c0-13.232 10.768-24 24-24h80c13.232 0 24 10.768 24 24v48h-16v-48h-16v72h16v-8h24c4.416 0 8-3.576 8-8v-56c0-22.056-17.944-40-40-40zm-40 0c-17.648 0-32-14.352-32-32s14.352-32 32-32 32 14.352 32 32-14.352 32-32 32zm216 0h-4.32c7.632-8.504 12.32-19.696 12.32-32 0-26.472-21.528-48-48-48s-48 21.528-48 48c0 12.304 4.688 23.496 12.32 32H392c-22.056 0-40 17.944-40 40v56c0 4.424 3.584 8 8 8h24v8h16v-72h-16v48h-16v-48c0-13.232 10.768-24 24-24h80c13.232 0 24 10.768 24 24v48h-16v-48h-16v72h16v-8h24c4.416 0 8-3.576 8-8v-56c0-22.056-17.944-40-40-40zm-40 0c-17.648 0-32-14.352-32-32s14.352-32 32-32 32 14.352 32 32-14.352 32-32 32z"/></symbol><symbol id="what-03-schedule" viewBox="0 0 64 64"><path d="M59 10h-5V4c0-2.206-1.794-4-4-4s-4 1.794-4 4v6H18V4c0-2.206-1.794-4-4-4s-4 1.794-4 4v6H5c-2.757 0-5 2.243-5 5v44c0 2.757 2.243 5 5 5h54c2.757 0 5-2.243 5-5V15c0-2.757-2.243-5-5-5zM48 4c0-1.103.897-2 2-2 1.102 0 2 .897 2 2v6h-4V4zM12 4c0-1.103.897-2 2-2 1.102 0 2 .897 2 2v6h-4V4zm50 55c0 1.654-1.346 3-3 3H5c-1.654 0-3-1.346-3-3V24h60v35zm0-37H2v-7c0-1.654 1.346-3 3-3h54c1.654 0 3 1.346 3 3v7z"/><path d="M13 28H7a1 1 0 0 0-1 1v6a1 1 0 0 0 1 1h6a1 1 0 0 0 1-1v-6a1 1 0 0 0-1-1zm-1 6H8v-4h4v4zm23-6h-6a1 1 0 0 0-1 1v6a1 1 0 0 0 1 1h6a1 1 0 0 0 1-1v-6a1 1 0 0 0-1-1zm-1 6h-4v-4h4v4zm12-6h-6a1 1 0 0 0-1 1v6a1 1 0 0 0 1 1h6a1 1 0 0 0 1-1v-6a1 1 0 0 0-1-1zm-1 6h-4v-4h4v4zm12-6h-6a1 1 0 0 0-1 1v6a1 1 0 0 0 1 1h6a1 1 0 0 0 1-1v-6a1 1 0 0 0-1-1zm-1 6h-4v-4h4v4zm-43 5H7a1 1 0 0 0-1 1v6a1 1 0 0 0 1 1h6a1 1 0 0 0 1-1v-6a1 1 0 0 0-1-1zm-1 6H8v-4h4v4zm12-6h-6a1 1 0 0 0-1 1v6a1 1 0 0 0 1 1h6a1 1 0 0 0 1-1v-6a1 1 0 0 0-1-1zm-1 6h-4v-4h4v4zm12-6h-6a1 1 0 0 0-1 1v6a1 1 0 0 0 1 1h6a1 1 0 0 0 1-1v-6a1 1 0 0 0-1-1zm-1 6h-4v-4h4v4zm23-6h-6a1 1 0 0 0-1 1v6a1 1 0 0 0 1 1h6a1 1 0 0 0 1-1v-6a1 1 0 0 0-1-1zm-1 6h-4v-4h4v4zm-32 5h-6a1 1 0 0 0-1 1v6a1 1 0 0 0 1 1h6a1 1 0 0 0 1-1v-6a1 1 0 0 0-1-1zm-1 6h-4v-4h4v4zm12-6h-6a1 1 0 0 0-1 1v6a1 1 0 0 0 1 1h6a1 1 0 0 0 1-1v-6a1 1 0 0 0-1-1zm-1 6h-4v-4h4v4zm12-6h-6a1 1 0 0 0-1 1v6a1 1 0 0 0 1 1h6a1 1 0 0 0 1-1v-6a1 1 0 0 0-1-1zm-1 6h-4v-4h4v4zm12-6h-6a1 1 0 0 0-1 1v6a1 1 0 0 0 1 1h6a1 1 0 0 0 1-1v-6a1 1 0 0 0-1-1zm-1 6h-4v-4h4v4zM24.71 29.71l-1.42-1.42-2.29 2.3-2.29-2.3-1.42 1.42 2.3 2.29-2.3 2.29 1.42 1.42 2.29-2.3 2.29 2.3 1.42-1.42-2.3-2.29zm-11 22l-1.42-1.42-2.29 2.3-2.29-2.3-1.42 1.42L8.59 54l-2.3 2.29 1.42 1.42 2.29-2.3 2.29 2.3 1.42-1.42-2.3-2.29zm33-11l-1.42-1.42-2.29 2.3-2.29-2.3-1.42 1.42 2.3 2.29-2.3 2.29 1.42 1.42 2.29-2.3 2.29 2.3 1.42-1.42-2.3-2.29zM54 18h2v2h-2zm4 0h2v2h-2zm-8 0h2v2h-2z"/></symbol><symbol id="what-02-review" viewBox="0 0 488 488"><path d="M450.408 168.648C461.208 158.432 468 144.008 468 128c0-30.88-25.12-56-56-56s-56 25.12-56 56c0 19.648 10.192 36.936 25.544 46.928C370.968 182.136 364 194.264 364 208v56h-32v-40c0-28.624-21.6-52.272-49.36-55.568C293.312 158.232 300 143.896 300 128c0-30.88-25.12-56-56-56s-56 25.12-56 56c0 15.896 6.688 30.232 17.36 40.432C177.6 171.728 156 195.376 156 224v40h-32v-56c0-13.736-6.968-25.864-17.544-33.072C121.808 164.936 132 147.648 132 128c0-30.88-25.12-56-56-56s-56 25.12-56 56c0 16.008 6.792 30.432 17.592 40.648C18.592 171.736 4 188.136 4 208v120c0 19.312 13.768 35.472 32 39.192V488h16V368h72v112c0 4.416 3.584 8 8 8h48c4.416 0 8-3.584 8-8V352h48v120h-32v16h80v-16h-32V352h48v128c0 4.416 3.584 8 8 8h48c4.416 0 8-3.584 8-8V368h72v120h16V367.192c18.232-3.72 32-19.872 32-39.192V208c0-19.864-14.592-36.264-33.592-39.352zM372 128c0-22.056 17.944-40 40-40s40 17.944 40 40-17.944 40-40 40-40-17.944-40-40zm-168 0c0-22.056 17.944-40 40-40s40 17.944 40 40-17.944 40-40 40-40-17.944-40-40zm52.456 56L244 217.216 231.544 184h24.912zM172 224c0-22.056 17.944-40 40-40h2.456l22.056 58.808c1.168 3.12 4.152 5.192 7.488 5.192s6.32-2.072 7.496-5.192L273.544 184H276c22.056 0 40 17.944 40 40v40h-32c-4.416 0-8 3.584-8 8v32h-64v-32c0-4.416-3.584-8-8-8h-32v-40zM36 128c0-22.056 17.944-40 40-40s40 17.944 40 40-17.944 40-40 40-40-17.944-40-40zm136 344h-32V360c0-4.416-3.584-8-8-8H44c-13.232 0-24-10.768-24-24V208c0-13.232 10.768-24 24-24h40c13.232 0 24 10.768 24 24v64c0 4.416 3.584 8 8 8h80v24H84v-72H68v80c0 4.416 3.584 8 8 8h72c13.232 0 24 10.768 24 24v128zm128.896-136H187.104c-1.208-5.896-3.632-11.352-7.12-16h128.032c-3.488 4.648-5.912 10.104-7.12 16zM468 328c0 13.232-10.768 24-24 24h-88c-4.416 0-8 3.584-8 8v112h-32V344c0-13.232 10.768-24 24-24h72c4.416 0 8-3.584 8-8v-80h-16v72H292v-24h80c4.416 0 8-3.584 8-8v-64c0-13.232 10.768-24 24-24h40c13.232 0 24 10.768 24 24v120z"/><path d="M236 264h16v16h-16zM204 0H92c-4.416 0-8 3.584-8 8v40c0 4.416 3.584 8 8 8h32v16c0 3.032 1.712 5.8 4.424 7.16 1.128.56 2.36.84 3.576.84a8.03 8.03 0 0 0 4.8-1.6L166.664 56H204c4.416 0 8-3.584 8-8V8c0-4.416-3.584-8-8-8zm-8 40h-32c-1.728 0-3.416.56-4.8 1.6L140 56v-8c0-4.416-3.584-8-8-8h-32V16h96v24zm88-16h16v16h-16zm32 0h16v16h-16zm32 0h16v16h-16z"/></symbol><symbol id="what-04-review" viewBox="0 0 64 64"><path d="M63.707 25.293L58 19.586V5a1 1 0 0 0-1-1H7a1 1 0 0 0-1 1v14.586L.293 25.293A.996.996 0 0 0 0 26v38h2V26.414l4-4V25a1 1 0 0 0 1 1h11.873A4.005 4.005 0 0 1 15 29h-4a1 1 0 0 0-1 1c0 3.309-2.691 6-6 6v2c.691 0 1.36-.095 2-.26V53a1 1 0 0 0 1 1h7v10h2V54h32v10h2V54h7a1 1 0 0 0 1-1V37.74c.64.166 1.309.26 2 .26v-2c-3.309 0-6-2.691-6-6a1 1 0 0 0-1-1h-4a4.005 4.005 0 0 1-3.873-3H57a1 1 0 0 0 1-1v-2.586l4 4V64h2V26a1 1 0 0 0-.293-.707zM8 36.919A8.011 8.011 0 0 0 11.938 31H15c3.309 0 6-2.691 6-6a1 1 0 0 0-1-1H8V6h23v42H8V36.919zM56 52H8v-2h48v2zm0-30v2H44a1 1 0 0 0-1 1c0 3.309 2.691 6 6 6h3.062A8.011 8.011 0 0 0 56 36.919V48H33V6h23v16z"/><path d="M21 8H11a1 1 0 0 0-1 1v8a1 1 0 0 0 1 1h10a1 1 0 0 0 1-1V9a1 1 0 0 0-1-1zm-1 8h-8v-6h8v6zm26 20H36a1 1 0 0 0-1 1v8a1 1 0 0 0 1 1h10a1 1 0 0 0 1-1v-8a1 1 0 0 0-1-1zm-1 8h-8v-6h8v6zM24 8h5v2h-5zm0 4h5v2h-5zm0 4h5v2h-5zm11 0h5v2h-5zm7 0h5v2h-5zm7 0h5v2h-5zm-39 4h19v2H10zm25 0h19v2H35zm-12 4h6v2h-6zm-1 4h7v2h-7zm-4 4h11v2H18zm17-8h6v2h-6zm0 4h7v2h-7zm0 4h11v2H35zm-23 4h17v2H12zm-2 4h19v2H10zm0 4h19v2H10zm39-8h4v2h-4zm0 4h5v2h-5zm0 4h5v2h-5zM35 12h9v2h-9zm11 0h8v2h-8zM35 8h5v2h-5zm7 0h12v2H42zm6-8h2v2h-2zm4 0h2v2h-2zm4 0h2v2h-2zM35 0h11v2H35z"/></symbol><symbol id="why-01-share" viewBox="0 0 488 488"><path d="M487.16 472.424L464.84 427.8c-12.272-24.552-36.944-39.8-64.392-39.8H360c-28.44 0-51.944-21.328-55.488-48.816C333.048 320.624 352 288.504 352 252v-96c0-30.872-25.12-56-56-56H112c-4.416 0-8 3.576-8 8 0 14.576 6.528 27.656 16.824 36.472A7.896 7.896 0 0 0 120 148c0 17.24 9.264 33.016 24 41.528V252c0 36.504 18.952 68.624 47.488 87.184C187.944 366.672 164.44 388 136 388H95.552c-27.448 0-52.128 15.248-64.4 39.8L8.84 472.424A8.019 8.019 0 0 0 8 476v8h16v-6.112l21.472-42.936C55.016 415.856 74.208 404 95.552 404H136c34.472 0 63.336-24.36 70.344-56.768C219.112 352.84 233.184 356 248 356s28.888-3.16 41.656-8.768C296.664 379.64 325.528 404 360 404h40.448c21.344 0 40.536 11.856 50.088 30.952L472 477.888V484h16v-8c0-1.24-.288-2.472-.84-3.576zM248 340c-48.52 0-88-39.48-88-88v-67.376a7.997 7.997 0 0 0-4.792-7.328A32.032 32.032 0 0 1 137.024 156H152c4.416 0 8-3.576 8-8 0-4.424-3.584-8-8-8-14.88 0-27.424-10.208-30.992-24H296c22.056 0 40 17.944 40 40v96c0 48.52-39.48 88-88 88z"/><path d="M287.16 472.424l-22.592-45.184L278.4 408.8a7.992 7.992 0 0 0 .76-8.376A8 8 0 0 0 272 396h-48a8.009 8.009 0 0 0-7.16 4.424 7.992 7.992 0 0 0 .76 8.376l13.832 18.44-22.592 45.184A8.019 8.019 0 0 0 208 476v8h16v-6.112l18.272-36.536c1.496 1.6 3.504 2.648 5.728 2.648s4.232-1.048 5.728-2.648L272 477.888V484h16v-8c0-1.24-.288-2.472-.84-3.576zM248 422.664L240 412h16l-8 10.664zm26.344-384.32L256 56.688V4h-16v52.688l-18.344-18.344-11.312 11.312 32 32A7.978 7.978 0 0 0 248 84a7.978 7.978 0 0 0 5.656-2.344l32-32-11.312-11.312zM448 196h-52.688l18.344-18.344-11.312-11.312-32 32a7.991 7.991 0 0 0 0 11.312l32 32 11.312-11.312L395.312 212H448v-16zm-322.344 2.344l-32-32-11.312 11.312L100.688 196H48v16h52.688l-18.344 18.344 11.312 11.312 32-32a7.991 7.991 0 0 0 0-11.312zM464 196h16v16h-16zm-448 0h16v16H16zm192-8c-17.648 0-32 14.352-32 32s14.352 32 32 32 32-14.352 32-32-14.352-32-32-32zm0 48c-8.824 0-16-7.176-16-16s7.176-16 16-16 16 7.176 16 16-7.176 16-16 16zm80-48c-17.648 0-32 14.352-32 32s14.352 32 32 32 32-14.352 32-32-14.352-32-32-32zm0 48c-8.824 0-16-7.176-16-16s7.176-16 16-16 16 7.176 16 16-7.176 16-16 16zM464 4h-96c-13.232 0-24 10.768-24 24v48c0 13.232 10.768 24 24 24v16a8.01 8.01 0 0 0 4.056 6.96A7.969 7.969 0 0 0 376 124a8.029 8.029 0 0 0 4.12-1.144L418.216 100H464c13.232 0 24-10.768 24-24V28c0-13.232-10.768-24-24-24zm8 72c0 4.416-3.592 8-8 8h-48a7.978 7.978 0 0 0-4.12 1.144L384 101.864V92c0-4.424-3.584-8-8-8h-8c-4.408 0-8-3.584-8-8V28c0-4.416 3.592-8 8-8h96c4.408 0 8 3.584 8 8v48z"/><path d="M376 44h16v16h-16zm32 0h16v16h-16zm32 0h16v16h-16zM121.744 292.064l6.096-30.496a8.01 8.01 0 0 0-3.752-8.448 7.97 7.97 0 0 0-9.208.728L69.104 292H24c-13.232 0-24 10.768-24 24v32c0 13.232 10.768 24 24 24h96c13.232 0 24-10.768 24-24v-32c0-12.648-9.832-23.04-22.256-23.936zM128 348c0 4.416-3.592 8-8 8H24c-4.408 0-8-3.584-8-8v-32c0-4.416 3.592-8 8-8h48c1.872 0 3.68-.656 5.12-1.848l30.592-25.496-3.552 17.776a7.983 7.983 0 0 0 1.656 6.64A8.008 8.008 0 0 0 112 308h8c4.408 0 8 3.584 8 8v32z"/><path d="M96 324h16v16H96zm-32 0h16v16H64zm-32 0h16v16H32zm256-48c0 13.232-10.768 24-24 24v16c22.056 0 40-17.944 40-40h-16zM96 4H32C18.768 4 8 14.768 8 28v32c0 13.232 10.768 24 24 24h13.784l38.096 22.856A8.029 8.029 0 0 0 88 108c1.36 0 2.72-.344 3.944-1.04A8.01 8.01 0 0 0 96 100V84c13.232 0 24-10.768 24-24V28c0-13.232-10.768-24-24-24zm8 56c0 4.416-3.592 8-8 8h-8c-4.416 0-8 3.576-8 8v9.864L52.12 69.136A8.047 8.047 0 0 0 48 68H32c-4.408 0-8-3.584-8-8V28c0-4.416 3.592-8 8-8h64c4.408 0 8 3.584 8 8v32z"/><path d="M72 36h16v16H72zm-32 0h16v16H40zm400 256h-13.784l-38.096-22.856a7.976 7.976 0 0 0-8.056-.104A8.002 8.002 0 0 0 376 276v16c-13.232 0-24 10.768-24 24v32c0 13.232 10.768 24 24 24h64c13.232 0 24-10.768 24-24v-32c0-13.232-10.768-24-24-24zm8 56c0 4.416-3.592 8-8 8h-64c-4.408 0-8-3.584-8-8v-32c0-4.416 3.592-8 8-8h8c4.416 0 8-3.576 8-8v-9.864l27.88 16.728A8.047 8.047 0 0 0 424 308h16c4.408 0 8 3.584 8 8v32z"/><path d="M384 324h16v16h-16zm32 0h16v16h-16z"/></symbol><symbol id="why-02-others" viewBox="0 0 491.06 491.06"><path d="M61.408 133.532c-13.232 0-24 10.768-24 24s10.768 24 24 24 24-10.768 24-24-10.768-24-24-24zm0 32c-4.408 0-8-3.592-8-8s3.592-8 8-8 8 3.592 8 8-3.592 8-8 8z"/><path d="M491.064 203.188l-11.312-11.312-114.48 114.48c-.432-.488-.776-1.04-1.24-1.512l-67.312-67.312 10.344-10.344-11.312-11.312L272 239.628c-12.728 12.72-32.432 14.48-47.096 5.272l58.136-57.68c.008-.008.008-.016.016-.024l152-152-11.312-11.312L277.408 170.22l-10.344-10.344a7.979 7.979 0 0 0-5.656-2.344H232.72l-13.656-13.656-112-112-11.312 11.312 74.344 74.344-102.32 102.32-56.96-52.216L0 179.436l93.408 85.616v20.48c0 2.12.84 4.16 2.344 5.656l34.6 34.6c-3.16 4.264-4.944 9.368-4.944 14.776 0 13.472 10.736 24.408 24.088 24.88.464 13.056 10.944 23.536 24 24 .464 13.056 10.944 23.536 24 24 .472 13.352 11.416 24.088 24.88 24.088 3.4 0 6.696-.696 9.736-1.984l.608.608c6.04 6.048 14.08 9.376 22.632 9.376 8.552 0 16.584-3.328 22.624-9.376l86.056-86.056c6.048-6.048 9.376-14.08 9.376-22.624 0-2.048-.216-4.064-.592-6.04l118.248-118.248zm-411.48 27.488l101.824-101.832 20.688 20.688L101.168 250.46l-21.584-19.784zm77.136 116.232a8.933 8.933 0 0 1-6.344 2.624c-4.944 0-8.968-4.024-8.968-8.968 0-2.4.936-4.648 2.624-6.344l38.064-38.064a8.933 8.933 0 0 1 6.344-2.624c4.944 0 8.968 4.024 8.968 8.968 0 2.4-.936 4.648-2.624 6.344l-38.064 38.064zm24 24a8.933 8.933 0 0 1-6.344 2.624c-4.944 0-8.968-4.024-8.968-8.968 0-2.4.936-4.648 2.624-6.344l38.064-38.064a8.933 8.933 0 0 1 6.344-2.624c4.944 0 8.968 4.024 8.968 8.968 0 2.4-.936 4.648-2.624 6.344l-38.064 38.064zm24 24a8.933 8.933 0 0 1-6.344 2.624c-4.944 0-8.968-4.024-8.968-8.968 0-2.4.936-4.648 2.624-6.344l38.064-38.064a8.933 8.933 0 0 1 6.344-2.624c4.944 0 8.968 4.024 8.968 8.968 0 2.4-.936 4.648-2.624 6.344l-38.064 38.064zm24 24a8.933 8.933 0 0 1-6.344 2.624c-4.944 0-8.968-4.024-8.968-8.968 0-2.4.936-4.648 2.624-6.344l38.064-38.064a8.933 8.933 0 0 1 6.344-2.624c4.944 0 8.968 4.024 8.968 8.968 0 2.4-.936 4.648-2.624 6.344l-38.064 38.064zm124-80.12l-86.056 86.056c-5.816 5.816-15.736 5.976-21.864.616l33.304-33.304a24.836 24.836 0 0 0 7.304-17.656c0-13.472-10.736-24.408-24.088-24.88-.464-13.056-10.944-23.536-24-24-.464-13.056-10.944-23.536-24-24-.472-13.352-11.416-24.088-24.88-24.088-6.672 0-12.944 2.6-17.656 7.312l-29.376 29.376-32-32v-17.376l104-104 10.344 10.344a7.979 7.979 0 0 0 5.656 2.344h28.688l7.976 7.976-58.8 58.344a8.006 8.006 0 0 0 .024 11.376c21.032 20.72 55.144 20.592 76.016-.296l2.096-2.088 67.312 67.312a15.896 15.896 0 0 1 4.688 11.32c0 4.28-1.664 8.288-4.688 11.312zM55.784 349.044l-14.04 7.68c2.632 4.808 5.48 9.6 8.464 14.232l13.456-8.656a213.982 213.982 0 0 1-7.88-13.256zm114.152 98.936l-5.608 14.984a224.943 224.943 0 0 0 15.728 5.232l4.496-15.352a212.772 212.772 0 0 1-14.616-4.864zm-53.984-29.528l-9.608 12.8c4.4 3.304 8.984 6.488 13.608 9.464l8.656-13.456a216.403 216.403 0 0 1-12.656-8.808zm25.928 16.704l-7.68 14.032c4.816 2.632 9.8 5.136 14.816 7.432l6.664-14.544a224.336 224.336 0 0 1-13.8-6.92zm-49.232-36.912l-11.32 11.304a230.82 230.82 0 0 0 12.12 11.296l10.488-12.088a219.02 219.02 0 0 1-11.288-10.512zm-20.2-23.296l-12.8 9.6a235.854 235.854 0 0 0 10.392 12.888l12.088-10.488a228.848 228.848 0 0 1-9.68-12zM29.952 260.98l-15.96 1.136c.384 5.48.976 11.016 1.752 16.464l15.84-2.256c-.72-5.08-1.272-10.24-1.632-15.344zm-15.96-31.976c-.392 5.44-.584 11-.584 16.528v.024l16-.024c0-5.152.184-10.336.544-15.392l-15.96-1.136zm20.312 62.48l-15.632 3.4a232.104 232.104 0 0 0 4.088 16.048l15.352-4.496a224.708 224.708 0 0 1-3.808-14.952zm8.672 29.568l-14.992 5.6a232.73 232.73 0 0 0 6.336 15.28l14.552-6.648a217.545 217.545 0 0 1-5.896-14.232zm398.968 14.224a219.994 219.994 0 0 1-6.928 13.8l14.04 7.68c2.632-4.816 5.136-9.8 7.432-14.816l-14.544-6.664zm-14.808 27.064a219.1 219.1 0 0 1-8.816 12.664l12.8 9.608a231.61 231.61 0 0 0 9.472-13.608l-13.456-8.664zm-18.512 24.664a212.394 212.394 0 0 1-10.512 11.288l11.304 11.32a230.82 230.82 0 0 0 11.296-12.12l-12.088-10.488zm44.096-80.608a218.93 218.93 0 0 1-4.864 14.624l14.984 5.6a227.759 227.759 0 0 0 5.232-15.728l-15.352-4.496zm6.52-30.112a217.285 217.285 0 0 1-2.728 15.176l15.64 3.384a229.188 229.188 0 0 0 2.92-16.304l-15.832-2.256zm-72.424 132.528a220.491 220.491 0 0 1-12.008 9.688l9.6 12.8c4.408-3.304 8.744-6.8 12.888-10.392l-10.48-12.096zm-187.32 47.84l-3.384 15.632a229.188 229.188 0 0 0 16.304 2.92l2.256-15.832a222.047 222.047 0 0 1-15.176-2.72zm261.912-211.12c0 5.144-.176 10.336-.536 15.416l15.96 1.128c.384-5.464.576-11.032.576-16.544h-16zM276.184 459.356a219.187 219.187 0 0 1-15.344 1.632l1.136 15.96c5.48-.384 11.016-.976 16.464-1.752l-2.256-15.84zm-30.776 2.176c-5.144 0-10.32-.176-15.4-.536l-1.128 15.96c5.456.384 11.024.576 16.536.576l-.008-16zm116.752-34.24a217.059 217.059 0 0 1-13.248 7.872l7.68 14.04a234.394 234.394 0 0 0 14.224-8.456l-8.656-13.456zm-27.016 14.776a214.785 214.785 0 0 1-14.224 5.896l5.592 14.992a232.73 232.73 0 0 0 15.28-6.336l-6.648-14.552zm-28.848 10.768a223.46 223.46 0 0 1-14.952 3.808l3.4 15.632a232.104 232.104 0 0 0 16.048-4.088l-4.496-15.352z"/><path d="M338.728 33.82l-7.048 14.368a214.436 214.436 0 0 1 13.576 7.296l8.064-13.824a234.27 234.27 0 0 0-14.592-7.84zm-93.32-20.288l-3.344.024.232 16 3.112-.024c4.224 0 8.352.096 12.384.288l.752-15.984c-4.28-.2-8.648-.304-13.136-.304zm62.272 8.184l-4.488 15.36a174.864 174.864 0 0 1 14.456 4.928l5.832-14.896a190.521 190.521 0 0 0-15.8-5.392zm-32.648-6.544l-1.856 15.888a193.722 193.722 0 0 1 15.168 2.384l3.12-15.696a209.158 209.158 0 0 0-16.432-2.576zm-113.856 14.12c-5.128 2-10.24 4.208-15.2 6.568l6.856 14.456A219.766 219.766 0 0 1 167 44.196l-5.824-14.904zm31.64-9.768a230.84 230.84 0 0 0-15.992 4.32l4.728 15.288a212.29 212.29 0 0 1 14.88-4.024l-3.616-15.584zm32.712-5.152a234.192 234.192 0 0 0-16.448 1.992l2.496 15.808c5.032-.8 10.184-1.424 15.304-1.856l-1.352-15.944z"/></symbol><symbol id="why-06-fun" viewBox="0 0 51 51"><path d="M15 21c2.206 0 4-1.794 4-4s-1.794-4-4-4-4 1.794-4 4 1.794 4 4 4zm0-6c1.103 0 2 .897 2 2s-.897 2-2 2-2-.897-2-2 .897-2 2-2zm16 6c2.206 0 4-1.794 4-4s-1.794-4-4-4-4 1.794-4 4 1.794 4 4 4zm0-6c1.103 0 2 .897 2 2s-.897 2-2 2-2-.897-2-2 .897-2 2-2z"/><path d="M50.707 46.293l-9.402-9.402A23.026 23.026 0 0 0 46 23C46 10.317 35.682 0 23 0S0 10.317 0 23s10.318 23 23 23c5.019 0 9.91-1.672 13.891-4.694l9.401 9.401a1.001 1.001 0 0 0 1.415 0l3-3a.999.999 0 0 0 0-1.414zM23 44C11.42 44 2 34.579 2 23S11.42 2 23 2s21 9.421 21 21c0 4.493-1.466 8.869-4.121 12.465l-4.172-4.172A.997.997 0 0 0 35 31h-3c-.098 0-.187.029-.276.056l-.319-.431c-6.48 4.805-14.746 3.467-20.102-3.248L9.74 28.623c3.618 4.539 8.424 6.897 13.282 6.897 2.71 0 5.433-.747 7.979-2.245V35c0 .266.105.52.293.707l4.171 4.171A21.032 21.032 0 0 1 23 44zm24 4.586l-14-14V33h1.586l14 14L47 48.586zM32 49h2v2h-2z"/><path d="M36 49h2v2h-2zm4 0h2v2h-2z"/></symbol><symbol id="why-03-material" viewBox="0 0 480 480"><path d="M421.648 74.336L349.664 2.352A7.954 7.954 0 0 0 344 0H96C73.944 0 56 17.944 56 40v400c0 22.056 17.944 40 40 40h288c22.056 0 40-17.944 40-40V80a7.954 7.954 0 0 0-2.352-5.664zM352 27.312L396.688 72H352V27.312zM408 440c0 13.232-10.768 24-24 24H96c-13.232 0-24-10.768-24-24V40c0-13.232 10.768-24 24-24h240v64c0 4.424 3.584 8 8 8h64v352z"/><path d="M128 112c-17.648 0-32 14.352-32 32s14.352 32 32 32 32-14.352 32-32-14.352-32-32-32zm0 48c-8.824 0-16-7.176-16-16s7.176-16 16-16 16 7.176 16 16-7.176 16-16 16zm0 40c-17.648 0-32 14.352-32 32s14.352 32 32 32 32-14.352 32-32-14.352-32-32-32zm0 48c-8.824 0-16-7.176-16-16s7.176-16 16-16 16 7.176 16 16-7.176 16-16 16zm0 40c-17.648 0-32 14.352-32 32s14.352 32 32 32 32-14.352 32-32-14.352-32-32-32zm0 48c-8.824 0-16-7.176-16-16s7.176-16 16-16 16 7.176 16 16-7.176 16-16 16zm0 40c-17.648 0-32 14.352-32 32s14.352 32 32 32 32-14.352 32-32-14.352-32-32-32zm0 48c-8.824 0-16-7.176-16-16s7.176-16 16-16 16 7.176 16 16-7.176 16-16 16zm48-272h208v16H176zm8-112h112v16H184zm-24 32h160v16H160zm16 168h208v16H176zm0 88h208v16H176zm0 88h208v16H176zm64-296h16v16h-16zm-32 0h16v16h-16zm-32 0h16v16h-16z"/></symbol><symbol id="why-04-skills" viewBox="0 0 480 480"><path d="M472 240h-64v-32c0-3.384-2.128-6.4-5.312-7.536L296 162.36V144h56c22.056 0 40-17.944 40-40 0-19.32-13.768-35.488-32.008-39.2.008-.264.008-.536.008-.8 0-22.056-17.944-40-40-40-3.648 0-7.296.528-10.84 1.56C303.36 10.456 288.832 0 272 0c-13.128 0-24.704 6.448-32 16.248C232.704 6.448 221.128 0 208 0c-16.832 0-31.36 10.456-37.16 25.56A38.732 38.732 0 0 0 160 24c-22.056 0-40 17.944-40 40 0 .264 0 .536.008.8C101.768 68.512 88 84.68 88 104c0 22.056 17.944 40 40 40h56v18.36L77.312 200.464A8.001 8.001 0 0 0 72 208v32H40c-22.056 0-40 17.944-40 40v160c0 22.056 17.944 40 40 40h96c4.416 0 8-3.584 8-8V248c0-4.416-3.584-8-8-8H88v-26.36l106.688-38.104A8.001 8.001 0 0 0 200 168v-24h8c9.04 0 17.296-3.128 24-8.208V240h-24c-22.056 0-40 17.944-40 40v160c0 22.056 17.944 40 40 40h96c4.416 0 8-3.584 8-8V248c0-4.416-3.584-8-8-8h-56V135.792c6.704 5.08 14.96 8.208 24 8.208h8v24c0 3.384 2.128 6.4 5.312 7.536L392 213.64V240h-16c-22.056 0-40 17.944-40 40v160c0 22.056 17.944 40 40 40h96c4.416 0 8-3.584 8-8V248c0-4.416-3.584-8-8-8zM128 464H40c-13.232 0-24-10.768-24-24V311.984c.304.232.664.4.976.624.664.472 1.368.88 2.064 1.312a40.143 40.143 0 0 0 4.16 2.264 39.64 39.64 0 0 0 2.384 1.032c1.536.6 3.12 1.072 4.744 1.472.76.192 1.488.424 2.264.568 2.4.448 4.864.744 7.408.744h88v144zm0-208v48H40c-13.232 0-24-10.768-24-24s10.768-24 24-24h32v24h16v-24h40zm87.256-129.24c-2.376-16.288-10.84-30.6-23.08-40.504.888-8 7.6-14.256 15.824-14.256V56c-13.96 0-25.728 9.04-30.096 21.528C169.976 74 161.224 72 152 72v16c23.736 0 43.448 17.336 47.28 40h-45.056c2.776-4.76 7.88-8 13.776-8v-16c-14.864 0-27.288 10.24-30.864 24H128c-13.232 0-24-10.768-24-24s10.768-24 23.504-24.016c.272.04 1.072.12 1.344.128 2.472.072 4.968-1.008 6.552-2.984a7.988 7.988 0 0 0 1.496-7.048c-.608-2.336-.896-4.272-.896-6.08 0-13.232 10.768-24 24-24 4.248 0 8.36 1.176 12.232 3.488a7.992 7.992 0 0 0 7.68.296 8.003 8.003 0 0 0 4.384-6.312C185.6 25.232 195.792 16 208 16c13.232 0 24 10.768 24 24v64c0 10.688-7.072 19.664-16.744 22.76zM296 464h-88c-13.232 0-24-10.768-24-24V311.984c.304.232.664.4.976.624.664.472 1.368.88 2.064 1.312a40.143 40.143 0 0 0 4.16 2.264 39.64 39.64 0 0 0 2.384 1.032c1.536.6 3.12 1.072 4.744 1.472.76.192 1.488.424 2.264.568 2.4.448 4.864.744 7.408.744h88v144zm0-208v48h-88c-13.232 0-24-10.768-24-24s10.768-24 24-24h24v24h16v-24h48zm-15.28-128c3.824-22.664 23.536-40 47.28-40V72c-9.224 0-17.976 2-25.904 5.528C297.728 65.04 285.96 56 272 56v16c8.224 0 14.936 6.256 15.824 14.248-12.24 9.904-20.704 24.224-23.08 40.504C255.072 123.664 248 114.688 248 104V40c0-13.232 10.768-24 24-24 12.208 0 22.4 9.232 23.704 21.472.296 2.704 1.944 5.088 4.384 6.304s5.336 1.112 7.68-.288C311.64 41.168 315.752 40 320 40c13.232 0 24 10.768 24 24 0 1.808-.288 3.744-.904 6.072a7.983 7.983 0 0 0 1.496 7.048c1.584 1.976 3.992 3.056 6.552 2.984.464-.008.904-.064.856-.104 13.232 0 24 10.768 24 24s-10.768 24-24 24h-9.136c-3.576-13.76-16-24-30.864-24v16c5.896 0 11 3.24 13.776 8H280.72zM464 464h-88c-13.232 0-24-10.768-24-24V311.984c.304.232.664.4.976.624.664.472 1.368.88 2.064 1.312a40.143 40.143 0 0 0 4.16 2.264 39.64 39.64 0 0 0 2.384 1.032c1.536.6 3.12 1.072 4.744 1.472.76.192 1.488.424 2.264.568 2.4.448 4.864.744 7.408.744h88v144zm0-160h-88c-13.232 0-24-10.768-24-24s10.768-24 24-24h16v24h16v-24h56v48z"/><path d="M104 336H48c-4.416 0-8 3.584-8 8v32c0 4.416 3.584 8 8 8h56c4.416 0 8-3.584 8-8v-32c0-4.416-3.584-8-8-8zm-8 32H56v-16h40v16zm-56 32h72v16H40zm16 32h40v16H56zm216-96h-56c-4.416 0-8 3.584-8 8v32c0 4.416 3.584 8 8 8h56c4.416 0 8-3.584 8-8v-32c0-4.416-3.584-8-8-8zm-8 32h-40v-16h40v16zm-56 32h72v16h-72zm16 32h40v16h-40zm216-96h-56c-4.416 0-8 3.584-8 8v32c0 4.416 3.584 8 8 8h56c4.416 0 8-3.584 8-8v-32c0-4.416-3.584-8-8-8zm-8 32h-40v-16h40v16zm-56 32h72v16h-72zm16 32h40v16h-40zm24-336h16v16h-16zm32 0h16v16h-16zm0 32h16v16h-16zm0-64h16v16h-16zM48 96h16v16H48zm-32 0h16v16H16zm0 32h16v16H16zm0-64h16v16H16z"/></symbol><symbol id="why-05-together" viewBox="0 0 480 480"><path d="M472 0H8C3.584 0 0 3.584 0 8v336c0 4.416 3.584 8 8 8h24v120c0 4.416 3.584 8 8 8h80c4.416 0 8-3.584 8-8V352h224v120c0 4.416 3.584 8 8 8h80c4.416 0 8-3.584 8-8V352h24c4.416 0 8-3.584 8-8V8c0-4.416-3.584-8-8-8zM112 256v208H88V344H72v120H48V256H32v80H16v-80c0-13.232 10.768-24 24-24h80c13.232 0 24 10.768 24 24v24c0 4.416 3.584 8 8 8h40v16h-40c-13.232 0-24-10.768-24-24v-24h-16zm-64-72c0-17.648 14.352-32 32-32s32 14.352 32 32-14.352 32-32 32-32-14.352-32-32zm416 80v72h-16v-80h-16v208h-24V344h-16v120h-24V256c0-4.416-3.584-8-8-8h-48c-13.232 0-24-10.768-24-24v-48h16v48c0 4.416 3.584 8 8 8h128c13.232 0 24 10.768 24 24v8zm-96-80c0-17.648 14.352-32 32-32s32 14.352 32 32-14.352 32-32 32-32-14.352-32-32zm96 40.208c-6.704-5.08-14.96-8.208-24-8.208h-4.32c7.632-8.504 12.32-19.696 12.32-32 0-26.472-21.528-48-48-48s-48 21.528-48 48c0 12.304 4.688 23.496 12.32 32H320v-48c0-4.416-3.584-8-8-8h-32c-4.416 0-8 3.584-8 8v56c0 22.056 17.944 40 40 40h40v72H128v-24.208c6.704 5.08 14.96 8.208 24 8.208h48c4.416 0 8-3.584 8-8v-32c0-4.416-3.584-8-8-8h-40v-16c0-22.056-17.944-40-40-40h-4.32c7.632-8.504 12.32-19.696 12.32-32 0-26.472-21.528-48-48-48s-48 21.528-48 48c0 12.304 4.688 23.496 12.32 32H40c-9.04 0-17.296 3.128-24 8.208V48h448v176.208zM464 32H16V16h448v16z"/><path d="M400 64c-13.232 0-24 10.768-24 24 0 .32.08.624.096.944l-38.168 15.264C333.528 99.216 327.16 96 320 96c-7.928 0-14.92 3.912-19.288 9.856L263.88 94.808C263.248 82.136 252.824 72 240 72c-13.232 0-24 10.768-24 24 0 2.216.4 4.32.968 6.36l-43.064 30.144C169.968 129.696 165.192 128 160 128c-4.64 0-8.936 1.384-12.608 3.672l-44.808-35.848C103.44 93.36 104 90.752 104 88c0-13.232-10.768-24-24-24S56 74.768 56 88s10.768 24 24 24c4.64 0 8.936-1.384 12.608-3.672l44.808 35.848C136.56 146.64 136 149.248 136 152c0 13.232 10.768 24 24 24s24-10.768 24-24c0-2.216-.4-4.32-.968-6.36l43.064-30.144C230.032 118.304 234.808 120 240 120c7.928 0 14.92-3.912 19.288-9.856l36.832 11.048C296.752 133.864 307.176 144 320 144c13.232 0 24-10.768 24-24 0-.32-.08-.624-.096-.944l38.168-15.264C386.472 108.784 392.84 112 400 112c13.232 0 24-10.768 24-24s-10.768-24-24-24zM80 96c-4.408 0-8-3.592-8-8s3.592-8 8-8 8 3.592 8 8-3.592 8-8 8zm80 64c-4.408 0-8-3.592-8-8s3.592-8 8-8 8 3.592 8 8-3.592 8-8 8zm80-56c-4.408 0-8-3.592-8-8s3.592-8 8-8 8 3.592 8 8-3.592 8-8 8zm80 24c-4.408 0-8-3.592-8-8s3.592-8 8-8c4.408 0 8 3.592 8 8s-3.592 8-8 8zm80-32c-4.408 0-8-3.592-8-8s3.592-8 8-8c4.408 0 8 3.592 8 8s-3.592 8-8 8zm-200 80h56v16h-56zm-16 32h72v16h-72zm0 32h72v16h-72zm136 64h16v16h-16zm-32 0h16v16h-16zm-32 0h16v16h-16z"/></symbol></svg>